# MagicaVoxel @ ephtracy

# material
mtllib T1_B_Splinter.mtl

# normals
vn -1 0 0
vn 1 0 0
vn 0 0 1
vn 0 0 -1
vn 0 -1 0
vn 0 1 0

# texcoords
vt 0.537109 0.5
vt 0.654297 0.5
vt 0.861328 0.5
vt 0.892578 0.5
vt 0.970703 0.5
vt 0.982422 0.5

# verts
v -2.5 2 0.5
v -2.5 3 0.5
v -2.5 3 -0.5
v -2.5 2 -0.5
v -0.5 3 -1.5
v -0.5 4 -1.5
v -0.5 4 -2.5
v -0.5 3 -2.5
v -2.5 1 -0.5
v -2.5 2 -1.5
v -2.5 1 -1.5
v -3.5 0 1.5
v -3.5 1 1.5
v -3.5 1 0.5
v -3.5 0 0.5
v -2.5 1 0.5
v -2.5 2 -2.5
v -2.5 1 -2.5
v -2.5 1 2.5
v -2.5 2 2.5
v -2.5 2 1.5
v -2.5 1 1.5
v -2.5 3 1.5
v -2.5 3 2.5
v -2.5 3 -1.5
v -2.5 4 -1.5
v -2.5 4 -2.5
v -2.5 3 -2.5
v -3.5 0 -0.5
v -3.5 1 -0.5
v -3.5 1 -1.5
v -3.5 0 -1.5
v -3.5 1 -2.5
v -3.5 0 -2.5
v -0.5 3 2.5
v -0.5 4 2.5
v -0.5 4 1.5
v -0.5 3 1.5
v -2.5 4 0.5
v -2.5 4 -0.5
v -2.5 4 2.5
v -2.5 4 1.5
v -3.5 1 -3.5
v -3.5 0 -3.5
v -3.5 0 2.5
v -3.5 1 2.5
v -3.5 0 3.5
v -3.5 1 3.5
v -1.5 8 1.5
v -1.5 9 1.5
v -1.5 9 0.5
v -1.5 8 0.5
v -1.5 3 1.5
v -1.5 4 1.5
v -1.5 4 0.5
v -1.5 3 0.5
v -1.5 3 -0.5
v -1.5 4 -0.5
v -1.5 4 -1.5
v -1.5 3 -1.5
v -2.5 6 2.5
v -2.5 7 2.5
v -2.5 7 1.5
v -2.5 6 1.5
v -2.5 5 0.5
v -2.5 6 0.5
v -2.5 6 -0.5
v -2.5 5 -0.5
v -1.5 7 -0.5
v -1.5 8 -0.5
v -1.5 8 -1.5
v -1.5 7 -1.5
v -0.5 7 -1.5
v -0.5 8 -1.5
v -0.5 8 -2.5
v -0.5 7 -2.5
v -2.5 7 0.5
v -2.5 8 0.5
v -2.5 8 -0.5
v -2.5 7 -0.5
v -2.5 5 2.5
v -2.5 5 1.5
v -0.5 5 2.5
v -0.5 5 1.5
v -0.5 9 -0.5
v -0.5 10 -0.5
v -0.5 10 -1.5
v -0.5 9 -1.5
v -0.5 5 -1.5
v -0.5 5 -2.5
v -0.5 9 1.5
v -0.5 10 1.5
v -0.5 10 0.5
v -0.5 9 0.5
v 1.5 4 0.5
v 1.5 5 0.5
v 1.5 5 -0.5
v 1.5 4 -0.5
v -1.5 5 -0.5
v -1.5 5 -1.5
v -1.5 6 -0.5
v -1.5 6 -1.5
v -1.5 10 0.5
v -1.5 10 -0.5
v -1.5 9 -0.5
v -3.5 2 1.5
v -3.5 2 0.5
v 0.5 1 -2.5
v 0.5 2 -2.5
v 0.5 2 -3.5
v 0.5 1 -3.5
v -2.5 5 -1.5
v -2.5 5 -2.5
v -1.5 7 1.5
v -1.5 7 0.5
v -2.5 6 -1.5
v -2.5 6 -2.5
v -1.5 1 3.5
v -1.5 2 3.5
v -1.5 2 2.5
v -1.5 1 2.5
v -0.5 7 2.5
v -0.5 8 2.5
v -0.5 8 1.5
v -0.5 7 1.5
v -1.5 9 -1.5
v -0.5 6 0.5
v -0.5 7 0.5
v -0.5 7 -0.5
v -0.5 6 -0.5
v 1.5 8 -0.5
v 1.5 8 -1.5
v 1.5 9 -1.5
v 1.5 9 -0.5
v 2.5 1 -0.5
v 2.5 1 -1.5
v 2.5 2 -1.5
v 2.5 2 -0.5
v 2.5 1 0.5
v 2.5 2 0.5
v 2.5 1 1.5
v 2.5 2 1.5
v 2.5 1 -2.5
v 2.5 2 -2.5
v 2.5 3 -1.5
v 2.5 3 -0.5
v 2.5 3 0.5
v 2.5 3 -2.5
v 2.5 4 -2.5
v 2.5 4 -1.5
v 3.5 0 1.5
v 3.5 0 0.5
v 3.5 1 0.5
v 3.5 1 1.5
v 3.5 0 2.5
v 3.5 1 2.5
v 0.5 2 2.5
v 0.5 2 1.5
v 0.5 3 1.5
v 0.5 3 2.5
v -1.5 3 -2.5
v -1.5 4 -2.5
v 2.5 4 -0.5
v 2.5 4 0.5
v 3.5 0 -0.5
v 3.5 0 -1.5
v 3.5 1 -1.5
v 3.5 1 -0.5
v 0.5 5 2.5
v 0.5 5 1.5
v 0.5 6 1.5
v 0.5 6 2.5
v 1.5 8 1.5
v 1.5 8 0.5
v 1.5 9 0.5
v 1.5 9 1.5
v 3.5 0 3.5
v 3.5 1 3.5
v 1.5 1 2.5
v 1.5 1 1.5
v 1.5 2 1.5
v 1.5 2 2.5
v 3.5 0 -2.5
v 3.5 1 -2.5
v 1.5 2 0.5
v 1.5 3 0.5
v 1.5 3 1.5
v 0.5 4 1.5
v 0.5 4 2.5
v -1.5 3 2.5
v -1.5 4 2.5
v 3.5 0 -3.5
v 3.5 1 -3.5
v 0.5 3 0.5
v 0.5 4 0.5
v 0.5 4 -0.5
v 0.5 4 -1.5
v 0.5 5 -1.5
v 0.5 5 -0.5
v -1.5 6 2.5
v -1.5 6 1.5
v -1.5 7 2.5
v 0.5 7 -1.5
v 0.5 7 -2.5
v 0.5 8 -2.5
v 0.5 8 -1.5
v 0.5 5 0.5
v -1.5 5 1.5
v -1.5 5 2.5
v -1.5 5 0.5
v -1.5 6 0.5
v 0.5 9 -0.5
v 0.5 9 -1.5
v 0.5 10 -1.5
v 0.5 10 -0.5
v 0.5 4 -2.5
v 0.5 5 -2.5
v 0.5 9 1.5
v 0.5 9 0.5
v 0.5 10 0.5
v 0.5 10 1.5
v 2.5 5 -0.5
v 2.5 5 0.5
v 1.5 7 -0.5
v 1.5 7 -1.5
v -0.5 5 -0.5
v -0.5 6 -1.5
v 1.5 1 -2.5
v 1.5 1 -3.5
v 1.5 2 -3.5
v 1.5 2 -2.5
v 2.5 7 0.5
v 2.5 7 -0.5
v 2.5 8 -0.5
v 2.5 8 0.5
v -1.5 5 -2.5
v -1.5 6 -2.5
v -0.5 1 3.5
v -0.5 1 2.5
v -0.5 2 2.5
v -0.5 2 3.5
v 0.5 7 2.5
v 0.5 7 1.5
v 0.5 8 1.5
v 0.5 8 2.5
v 1.5 7 1.5
v 1.5 7 0.5
v 0.5 6 -0.5
v 0.5 6 0.5
v 1.5 10 -0.5
v 1.5 10 0.5
v 0.5 7 -0.5
v 0.5 7 0.5
v 0.5 0 3.5
v 1.5 0 3.5
v 1.5 1 3.5
v 0.5 1 3.5
v -0.5 0 3.5
v 0.5 1 2.5
v 2.5 0 3.5
v 2.5 1 3.5
v -0.5 6 2.5
v -1.5 0 3.5
v -2.5 0 3.5
v -2.5 1 3.5
v -0.5 4 0.5
v -0.5 5 0.5
v 0.5 0 -3.5
v 1.5 0 -3.5
v -0.5 2 -2.5
v 0.5 3 -2.5
v -0.5 1 -2.5
v -1.5 1 -2.5
v -1.5 2 -2.5
v 1.5 3 -2.5
v 1.5 4 -2.5
v -2.5 0 -3.5
v -2.5 1 -3.5
v -1.5 1 -3.5
v -1.5 0 -3.5
v -0.5 0 -3.5
v -0.5 1 -3.5
v -0.5 6 1.5
v 2.5 1 -3.5
v 2.5 0 -3.5
v -2.5 0 2.5
v -2.5 0 1.5
v -1.5 0 1.5
v -1.5 0 2.5
v -0.5 0 1.5
v -0.5 0 2.5
v 0.5 0 -2.5
v 1.5 0 -2.5
v 0.5 0 2.5
v 1.5 0 2.5
v 0.5 0 0.5
v 0.5 0 -0.5
v 1.5 0 -0.5
v 1.5 0 0.5
v 2.5 0 -0.5
v 2.5 0 0.5
v 1.5 0 -1.5
v 2.5 0 -1.5
v 0.5 0 1.5
v 1.5 0 1.5
v -2.5 0 0.5
v -1.5 0 0.5
v 2.5 0 -2.5
v -1.5 0 -0.5
v -0.5 0 -0.5
v -0.5 0 0.5
v 0.5 0 -1.5
v -0.5 0 -1.5
v -2.5 0 -0.5
v -2.5 0 -1.5
v -1.5 0 -1.5
v -2.5 0 -2.5
v -1.5 0 -2.5
v -0.5 0 -2.5
v 2.5 0 1.5
v 2.5 0 2.5
v 2.5 1 2.5
v 1.5 4 -1.5

# faces

usemtl palette

f 1/6/1 2/6/1 3/6/1 4/6/1

f 5/6/1 6/6/1 7/6/1 8/6/1

f 9/6/1 4/6/1 10/6/1 11/6/1

f 12/4/1 13/4/1 14/4/1 15/4/1

f 16/6/1 1/6/1 4/6/1 9/6/1

f 11/6/1 10/6/1 17/6/1 18/6/1

f 19/6/1 20/6/1 21/6/1 22/6/1

f 21/6/1 23/6/1 2/6/1 1/6/1

f 20/6/1 24/6/1 23/6/1 21/6/1

f 25/6/1 26/6/1 27/6/1 28/6/1

f 29/4/1 30/4/1 31/4/1 32/4/1

f 32/4/1 31/4/1 33/4/1 34/4/1

f 35/6/1 36/6/1 37/6/1 38/6/1

f 2/6/1 39/6/1 40/6/1 3/6/1

f 4/6/1 3/6/1 25/6/1 10/6/1

f 24/6/1 41/6/1 42/6/1 23/6/1

f 15/4/1 14/4/1 30/4/1 29/4/1

f 34/4/1 33/4/1 43/4/1 44/4/1

f 45/4/1 46/4/1 13/4/1 12/4/1

f 47/4/1 48/4/1 46/4/1 45/4/1

f 10/6/1 25/6/1 28/6/1 17/6/1

f 49/2/1 50/2/1 51/2/1 52/2/1

f 53/1/1 54/1/1 55/1/1 56/1/1

f 57/1/1 58/1/1 59/1/1 60/1/1

f 61/6/1 62/6/1 63/6/1 64/6/1

f 65/6/1 66/6/1 67/6/1 68/6/1

f 69/2/1 70/2/1 71/2/1 72/2/1

f 73/2/1 74/2/1 75/2/1 76/2/1

f 77/2/1 78/2/1 79/2/1 80/2/1

f 39/6/1 65/6/1 68/6/1 40/6/1

f 41/6/1 81/6/1 82/6/1 42/6/1

f 36/6/1 83/6/1 84/6/1 37/6/1

f 82/6/1 64/6/1 66/6/1 65/6/1

f 85/2/1 86/2/1 87/2/1 88/2/1

f 6/6/1 89/6/1 90/6/1 7/6/1

f 81/6/1 61/6/1 64/6/1 82/6/1

f 91/2/1 92/2/1 93/2/1 94/2/1

f 95/6/1 96/6/1 97/6/1 98/6/1

f 58/6/1 99/6/1 100/6/1 59/6/1

f 99/6/1 101/6/1 102/6/1 100/6/1

f 51/2/1 103/2/1 104/2/1 105/2/1

f 13/1/1 106/1/1 107/1/1 14/1/1

f 108/6/1 109/6/1 110/6/1 111/6/1

f 26/6/1 112/6/1 113/6/1 27/6/1

f 114/2/1 49/2/1 52/2/1 115/2/1

f 112/6/1 116/6/1 117/6/1 113/6/1

f 118/1/1 119/1/1 120/1/1 121/1/1

f 122/2/1 123/2/1 124/2/1 125/2/1

f 52/3/1 51/3/1 105/3/1 70/3/1

f 70/2/1 105/2/1 126/2/1 71/2/1

f 127/1/1 128/1/1 129/1/1 130/1/1

f 131/2/2 132/2/2 133/2/2 134/2/2

f 135/6/2 136/6/2 137/6/2 138/6/2

f 139/6/2 135/6/2 138/6/2 140/6/2

f 141/1/2 139/1/2 140/1/2 142/1/2

f 136/6/2 143/6/2 144/6/2 137/6/2

f 138/6/2 137/6/2 145/6/2 146/6/2

f 140/6/2 138/6/2 146/6/2 147/6/2

f 145/6/2 148/6/2 149/6/2 150/6/2

f 151/4/2 152/4/2 153/4/2 154/4/2

f 155/4/2 151/4/2 154/4/2 156/4/2

f 157/6/2 158/6/2 159/6/2 160/6/2

f 60/6/2 161/6/2 162/6/2 59/6/2

f 147/6/2 146/6/2 163/6/2 164/6/2

f 165/4/2 166/4/2 167/4/2 168/4/2

f 169/6/2 170/6/2 171/6/2 172/6/2

f 152/4/2 165/4/2 168/4/2 153/4/2

f 173/2/2 174/2/2 175/2/2 176/2/2

f 177/4/2 155/4/2 156/4/2 178/4/2

f 179/1/2 180/1/2 181/1/2 182/1/2

f 166/4/2 183/4/2 184/4/2 167/4/2

f 137/6/2 144/6/2 148/6/2 145/6/2

f 181/1/2 185/1/2 186/1/2 187/1/2

f 160/6/2 159/6/2 188/6/2 189/6/2

f 190/6/2 53/6/2 54/6/2 191/6/2

f 183/4/2 192/4/2 193/4/2 184/4/2

f 159/1/2 194/1/2 195/1/2 188/1/2

f 196/6/2 197/6/2 198/6/2 199/6/2

f 200/6/2 201/6/2 114/6/2 202/6/2

f 203/2/2 204/2/2 205/2/2 206/2/2

f 195/1/2 196/1/2 199/1/2 207/1/2

f 191/6/2 54/6/2 208/6/2 209/6/2

f 189/6/2 188/6/2 170/6/2 169/6/2

f 208/6/2 210/6/2 211/6/2 201/6/2

f 212/2/2 213/2/2 214/2/2 215/2/2

f 197/6/2 216/6/2 217/6/2 198/6/2

f 218/2/2 219/2/2 220/2/2 221/2/2

f 164/6/2 163/6/2 222/6/2 223/6/2

f 224/2/2 225/2/2 132/2/2 131/2/2

f 226/6/2 89/6/2 227/6/2 130/6/2

f 228/6/2 229/6/2 230/6/2 231/6/2

f 232/2/2 233/2/2 234/2/2 235/2/2

f 59/6/2 162/6/2 236/6/2 100/6/2

f 100/6/2 236/6/2 237/6/2 102/6/2

f 238/1/2 239/1/2 240/1/2 241/1/2

f 146/1/2 145/1/2 150/1/2 163/1/2

f 174/3/2 131/3/2 134/3/2 175/3/2

f 242/2/2 243/2/2 244/2/2 245/2/2

f 246/2/2 247/2/2 174/2/2 173/2/2

f 207/1/2 199/1/2 248/1/2 249/1/2

f 175/2/2 134/2/2 250/2/2 251/2/2

f 249/1/2 248/1/2 252/1/2 253/1/2

f 254/4/3 255/4/3 256/4/3 257/4/3

f 258/4/3 254/4/3 257/4/3 238/4/3

f 180/1/3 141/1/3 142/1/3 181/1/3

f 239/6/3 259/6/3 157/6/3 240/6/3

f 19/6/3 121/6/3 120/6/3 20/6/3

f 185/6/3 140/6/3 147/6/3 186/6/3

f 240/6/3 157/6/3 160/6/3 35/6/3

f 255/4/3 260/4/3 261/4/3 256/4/3

f 120/6/3 240/6/3 35/6/3 190/6/3

f 20/6/3 120/6/3 190/6/3 24/6/3

f 25/6/3 60/6/3 59/6/3 26/6/3

f 186/6/3 147/6/3 164/6/3 95/6/3

f 83/6/3 169/6/3 172/6/3 262/6/3

f 194/1/3 186/1/3 95/1/3 195/1/3

f 244/2/3 173/2/3 176/2/3 218/2/3

f 260/4/3 177/4/3 178/4/3 261/4/3

f 259/1/3 179/1/3 182/1/3 157/1/3

f 158/1/3 181/1/3 187/1/3 159/1/3

f 35/6/3 160/6/3 189/6/3 36/6/3

f 2/6/3 56/6/3 55/6/3 39/6/3

f 263/4/3 258/4/3 238/4/3 118/4/3

f 24/6/3 190/6/3 191/6/3 41/6/3

f 264/4/3 263/4/3 118/4/3 265/4/3

f 47/4/3 264/4/3 265/4/3 48/4/3

f 49/2/3 124/2/3 91/2/3 50/2/3

f 53/1/3 38/1/3 37/1/3 54/1/3

f 61/6/3 200/6/3 202/6/3 62/6/3

f 55/6/3 266/6/3 267/6/3 210/6/3

f 209/6/3 83/6/3 262/6/3 200/6/3

f 77/2/3 115/2/3 52/2/3 78/2/3

f 266/1/3 195/1/3 207/1/3 267/1/3

f 39/6/3 55/6/3 210/6/3 65/6/3

f 41/6/3 191/6/3 209/6/3 81/6/3

f 36/6/3 189/6/3 169/6/3 83/6/3

f 81/6/3 209/6/3 200/6/3 61/6/3

f 91/2/3 218/2/3 221/2/3 92/2/3

f 95/6/3 164/6/3 223/6/3 96/6/3

f 210/6/3 267/6/3 127/6/3 211/6/3

f 51/2/3 94/2/3 93/2/3 103/2/3

f 13/1/3 22/1/3 21/1/3 106/1/3

f 247/2/3 232/2/3 235/2/3 174/2/3

f 26/6/3 59/6/3 100/6/3 112/6/3

f 114/2/3 125/2/3 124/2/3 49/2/3

f 112/6/3 100/6/3 102/6/3 116/6/3

f 118/1/3 238/1/3 241/1/3 119/1/3

f 122/2/3 242/2/3 245/2/3 123/2/3

f 243/2/3 246/2/3 173/2/3 244/2/3

f 267/1/3 207/1/3 249/1/3 127/1/3

f 219/2/3 175/2/3 251/2/3 220/2/3

f 124/3/3 244/3/3 218/3/3 91/3/3

f 127/1/3 249/1/3 253/1/3 128/1/3

f 74/3/4 88/3/4 213/3/4 206/3/4

f 268/4/4 111/4/4 229/4/4 269/4/4

f 270/6/4 8/6/4 271/6/4 109/6/4

f 206/2/4 213/2/4 133/2/4 132/2/4

f 272/6/4 270/6/4 109/6/4 108/6/4

f 8/6/4 7/6/4 216/6/4 271/6/4

f 273/6/4 274/6/4 270/6/4 272/6/4

f 18/6/4 17/6/4 274/6/4 273/6/4

f 228/6/4 231/6/4 144/6/4 143/6/4

f 274/6/4 161/6/4 8/6/4 270/6/4

f 275/6/4 276/6/4 149/6/4 148/6/4

f 277/4/4 278/4/4 279/4/4 280/4/4

f 28/6/4 27/6/4 162/6/4 161/6/4

f 281/4/4 282/4/4 111/4/4 268/4/4

f 84/6/4 283/6/4 171/6/4 170/6/4

f 280/4/4 279/4/4 282/4/4 281/4/4

f 271/1/4 216/1/4 276/1/4 275/1/4

f 231/6/4 275/6/4 148/6/4 144/6/4

f 109/1/4 271/1/4 275/1/4 231/1/4

f 3/6/4 40/6/4 58/6/4 57/6/4

f 269/4/4 229/4/4 284/4/4 285/4/4

f 23/6/4 42/6/4 54/6/4 53/6/4

f 44/4/4 43/4/4 278/4/4 277/4/4

f 285/4/4 284/4/4 193/4/4 192/4/4

f 17/6/4 28/6/4 161/6/4 274/6/4

f 60/1/4 59/1/4 6/1/4 5/1/4

f 64/6/4 63/6/4 114/6/4 201/6/4

f 68/6/4 67/6/4 101/6/4 99/6/4

f 72/2/4 71/2/4 74/2/4 73/2/4

f 208/6/4 201/6/4 283/6/4 84/6/4

f 76/2/4 75/2/4 205/2/4 204/2/4

f 80/2/4 79/2/4 70/2/4 69/2/4

f 40/6/4 68/6/4 99/6/4 58/6/4

f 42/6/4 82/6/4 208/6/4 54/6/4

f 37/6/4 84/6/4 170/6/4 188/6/4

f 88/2/4 87/2/4 214/2/4 213/2/4

f 7/6/4 90/6/4 217/6/4 216/6/4

f 98/6/4 97/6/4 222/6/4 163/6/4

f 59/6/4 100/6/4 89/6/4 6/6/4

f 203/2/4 206/2/4 132/2/4 225/2/4

f 100/6/4 102/6/4 227/6/4 89/6/4

f 105/2/4 104/2/4 86/2/4 85/2/4

f 14/1/4 107/1/4 1/1/4 16/1/4

f 111/6/4 110/6/4 230/6/4 229/6/4

f 224/2/4 131/2/4 234/2/4 233/2/4

f 27/6/4 113/6/4 236/6/4 162/6/4

f 113/6/4 117/6/4 237/6/4 236/6/4

f 226/1/4 130/1/4 248/1/4 199/1/4

f 212/2/4 215/2/4 250/2/4 134/2/4

f 71/2/4 126/2/4 88/2/4 74/2/4

f 130/1/4 129/1/4 252/1/4 248/1/4

f 286/5/5 287/5/5 288/5/5 289/5/5

f 289/5/5 288/5/5 290/5/5 291/5/5

f 292/4/5 268/4/5 269/4/5 293/4/5

f 254/4/5 294/4/5 295/4/5 255/4/5

f 296/5/5 297/5/5 298/5/5 299/5/5

f 299/5/5 298/5/5 300/5/5 301/5/5

f 298/5/5 302/5/5 303/5/5 300/5/5

f 294/5/5 304/5/5 305/5/5 295/5/5

f 291/5/5 290/5/5 304/5/5 294/5/5

f 287/5/5 306/5/5 307/5/5 288/5/5

f 302/5/5 293/5/5 308/5/5 303/5/5

f 307/5/5 309/5/5 310/5/5 311/5/5

f 311/5/5 310/5/5 297/5/5 296/5/5

f 312/5/5 292/5/5 293/5/5 302/5/5

f 310/5/5 313/5/5 312/5/5 297/5/5

f 297/5/5 312/5/5 302/5/5 298/5/5

f 115/2/5 69/2/5 129/2/5 128/2/5

f 314/5/5 315/5/5 316/5/5 309/5/5

f 306/5/5 314/5/5 309/5/5 307/5/5

f 315/5/5 317/5/5 318/5/5 316/5/5

f 316/5/5 318/5/5 319/5/5 313/5/5

f 313/5/5 319/5/5 292/5/5 312/5/5

f 258/4/5 291/4/5 294/4/5 254/4/5

f 12/4/5 15/4/5 306/4/5 287/4/5

f 295/4/5 305/4/5 320/4/5 321/4/5

f 290/5/5 311/5/5 296/5/5 304/5/5

f 253/2/5 252/2/5 224/2/5 247/2/5

f 320/4/5 301/4/5 152/4/5 151/4/5

f 321/4/5 320/4/5 151/4/5 155/4/5

f 125/2/5 128/2/5 253/2/5 243/2/5

f 317/4/5 277/4/5 280/4/5 318/4/5

f 255/4/5 295/4/5 321/4/5 260/4/5

f 300/4/5 303/4/5 166/4/5 165/4/5

f 319/4/5 281/4/5 268/4/5 292/4/5

f 301/4/5 300/4/5 165/4/5 152/4/5

f 260/4/5 321/4/5 155/4/5 177/4/5

f 318/4/5 280/4/5 281/4/5 319/4/5

f 303/4/5 308/4/5 183/4/5 166/4/5

f 29/4/5 32/4/5 315/4/5 314/4/5

f 32/4/5 34/4/5 317/4/5 315/4/5

f 263/4/5 289/4/5 291/4/5 258/4/5

f 293/4/5 269/4/5 285/4/5 308/4/5

f 264/4/5 286/4/5 289/4/5 263/4/5

f 305/5/5 299/5/5 301/5/5 320/5/5

f 304/5/5 296/5/5 299/5/5 305/5/5

f 15/4/5 29/4/5 314/4/5 306/4/5

f 288/5/5 307/5/5 311/5/5 290/5/5

f 34/4/5 44/4/5 277/4/5 317/4/5

f 308/4/5 285/4/5 192/4/5 183/4/5

f 45/4/5 12/4/5 287/4/5 286/4/5

f 47/4/5 45/4/5 286/4/5 264/4/5

f 309/5/5 316/5/5 313/5/5 310/5/5

f 69/2/5 72/2/5 73/2/5 129/2/5

f 209/6/5 208/6/5 84/6/5 83/6/5

f 73/2/5 76/2/5 204/2/5 203/2/5

f 77/2/5 80/2/5 69/2/5 115/2/5

f 82/6/5 65/6/5 210/6/5 208/6/5

f 252/2/5 203/2/5 225/2/5 224/2/5

f 129/2/5 73/2/5 203/2/5 252/2/5

f 247/2/5 224/2/5 233/2/5 232/2/5

f 114/2/5 115/2/5 128/2/5 125/2/5

f 122/2/5 125/2/5 243/2/5 242/2/5

f 243/2/5 253/2/5 247/2/5 246/2/5

f 257/4/6 256/4/6 179/4/6 259/4/6

f 212/2/6 134/2/6 133/2/6 213/2/6

f 238/4/6 257/4/6 259/4/6 239/4/6

f 181/1/6 142/1/6 140/1/6 185/1/6

f 179/4/6 322/4/6 141/4/6 180/4/6

f 60/6/6 5/6/6 8/6/6 161/6/6

f 323/6/6 150/6/6 149/6/6 276/6/6

f 141/4/6 154/4/6 153/4/6 139/4/6

f 322/4/6 156/4/6 154/4/6 141/4/6

f 18/4/6 273/4/6 279/4/6 278/4/6

f 256/4/6 261/4/6 322/4/6 179/4/6

f 190/6/6 35/6/6 38/6/6 53/6/6

f 23/6/6 53/6/6 56/6/6 2/6/6

f 135/4/6 168/4/6 167/4/6 136/4/6

f 272/4/6 108/4/6 111/4/6 282/4/6

f 262/6/6 172/6/6 171/6/6 283/6/6

f 195/1/6 95/1/6 98/1/6 196/1/6

f 139/4/6 153/4/6 168/4/6 135/4/6

f 218/2/6 176/2/6 175/2/6 219/2/6

f 261/4/6 178/4/6 156/4/6 322/4/6

f 157/1/6 182/1/6 181/1/6 158/1/6

f 273/4/6 272/4/6 282/4/6 279/4/6

f 136/4/6 167/4/6 184/4/6 143/4/6

f 197/1/6 323/1/6 276/1/6 216/1/6

f 159/1/6 187/1/6 186/1/6 194/1/6

f 30/4/6 9/4/6 11/4/6 31/4/6

f 31/4/6 11/4/6 18/4/6 33/4/6

f 3/6/6 57/6/6 60/6/6 25/6/6

f 228/4/6 143/4/6 284/4/6 229/4/6

f 265/4/6 118/4/6 121/4/6 19/4/6

f 14/4/6 16/4/6 9/4/6 30/4/6

f 33/4/6 18/4/6 278/4/6 43/4/6

f 143/4/6 184/4/6 193/4/6 284/4/6

f 46/4/6 19/4/6 22/4/6 13/4/6

f 48/4/6 265/4/6 19/4/6 46/4/6

f 50/2/6 91/2/6 94/2/6 51/2/6

f 37/1/6 188/1/6 195/1/6 266/1/6

f 54/1/6 37/1/6 266/1/6 55/1/6

f 226/6/6 199/6/6 198/6/6 89/6/6

f 196/1/6 98/1/6 323/1/6 197/1/6

f 62/6/6 202/6/6 114/6/6 63/6/6

f 66/6/6 211/6/6 101/6/6 67/6/6

f 200/6/6 262/6/6 283/6/6 201/6/6

f 74/2/6 206/2/6 205/2/6 75/2/6

f 78/2/6 52/2/6 70/2/6 79/2/6

f 64/6/6 201/6/6 211/6/6 66/6/6

f 86/2/6 215/2/6 214/2/6 87/2/6

f 89/6/6 198/6/6 217/6/6 90/6/6

f 92/2/6 221/2/6 220/2/6 93/2/6

f 96/6/6 223/6/6 222/6/6 97/6/6

f 211/6/6 127/6/6 130/6/6 101/6/6

f 101/6/6 130/6/6 227/6/6 102/6/6

f 103/2/6 93/2/6 86/2/6 104/2/6

f 106/1/6 21/1/6 1/1/6 107/1/6

f 109/6/6 231/6/6 230/6/6 110/6/6

f 174/2/6 235/2/6 234/2/6 131/2/6

f 116/6/6 102/6/6 237/6/6 117/6/6

f 119/1/6 241/1/6 240/1/6 120/1/6

f 98/1/6 163/1/6 150/1/6 323/1/6

f 123/2/6 245/2/6 244/2/6 124/2/6

f 220/2/6 251/2/6 250/2/6 215/2/6

f 105/2/6 85/2/6 88/2/6 126/2/6

f 93/2/6 220/2/6 215/2/6 86/2/6

# numNormals 6
# numTexCoords 6
# numVerts 323
# numFaces 330
