# MagicaVoxel @ ephtracy

# material
mtllib T1_E_Droplet.mtl

# normals
vn -1 0 0
vn 1 0 0
vn 0 0 1
vn 0 0 -1
vn 0 -1 0
vn 0 1 0

# texcoords
vt 0.775391 0.5
vt 0.970703 0.5
vt 0.982422 0.5

# verts
v -2.5 5 2.5
v -2.5 6 2.5
v -2.5 6 1.5
v -2.5 5 1.5
v -2.5 3 -0.5
v -2.5 4 -0.5
v -2.5 4 -1.5
v -2.5 3 -1.5
v -1.5 6 0.5
v -1.5 7 0.5
v -1.5 7 -0.5
v -1.5 6 -0.5
v -0.5 7 0.5
v -0.5 8 0.5
v -0.5 8 -0.5
v -0.5 7 -0.5
v 1.5 3 0.5
v 1.5 4 0.5
v 1.5 4 -0.5
v 1.5 3 -0.5
v -1.5 1 -1.5
v -1.5 2 -1.5
v -1.5 2 -2.5
v -1.5 1 -2.5
v -3.5 0 3.5
v -3.5 1 3.5
v -3.5 1 2.5
v -3.5 0 2.5
v -2.5 3 0.5
v -2.5 4 0.5
v -3.5 0 -2.5
v -3.5 1 -2.5
v -3.5 1 -3.5
v -3.5 0 -3.5
v 0.5 4 -1.5
v 0.5 5 -1.5
v 0.5 5 -2.5
v 0.5 4 -2.5
v -2.5 5 -0.5
v -2.5 5 -1.5
v 1.5 2 0.5
v 1.5 2 -0.5
v -1.5 3 -1.5
v -1.5 4 -1.5
v -1.5 4 -2.5
v -1.5 3 -2.5
v 0.5 2 1.5
v 0.5 3 1.5
v 0.5 3 0.5
v 0.5 2 0.5
v -1.5 4 0.5
v -1.5 5 0.5
v -1.5 5 -0.5
v -1.5 4 -0.5
v -3.5 0 0.5
v -3.5 1 0.5
v -3.5 1 -0.5
v -3.5 0 -0.5
v -3.5 1 -1.5
v -3.5 0 -1.5
v 0.5 2 -0.5
v 0.5 3 -0.5
v 0.5 3 -1.5
v 0.5 2 -1.5
v -0.5 1 -2.5
v -0.5 2 -2.5
v -0.5 2 -3.5
v -0.5 1 -3.5
v -2.5 6 -1.5
v -2.5 6 -2.5
v -2.5 5 -2.5
v -1.5 5 -1.5
v -1.5 5 -2.5
v -2.5 4 1.5
v -2.5 5 0.5
v 0.5 4 1.5
v 0.5 4 0.5
v -0.5 6 1.5
v -0.5 7 1.5
v -0.5 6 0.5
v -3.5 1 1.5
v -3.5 0 1.5
v 0.5 4 -0.5
v -2.5 3 1.5
v -0.5 5 1.5
v -0.5 5 0.5
v 1.5 5 2.5
v 1.5 6 2.5
v 1.5 6 1.5
v 1.5 5 1.5
v 1.5 5 -1.5
v 1.5 6 -1.5
v 1.5 6 -2.5
v 1.5 5 -2.5
v -1.5 4 2.5
v -1.5 5 2.5
v -1.5 5 1.5
v -1.5 4 1.5
v -1.5 3 2.5
v -1.5 3 1.5
v 0.5 4 2.5
v 0.5 5 2.5
v 0.5 5 1.5
v -1.5 2 2.5
v -1.5 2 1.5
v -0.5 1 3.5
v -0.5 2 3.5
v -0.5 2 2.5
v -0.5 1 2.5
v -0.5 5 -0.5
v -0.5 6 -0.5
v -0.5 6 -1.5
v -0.5 5 -1.5
v -0.5 7 -1.5
v -1.5 1 2.5
v -1.5 1 1.5
v -2.5 1 -0.5
v -2.5 2 -0.5
v -2.5 2 -1.5
v -2.5 1 -1.5
v -2.5 1 1.5
v -2.5 2 1.5
v -2.5 2 0.5
v -2.5 1 0.5
v -3.5 2 0.5
v -3.5 2 -0.5
v 1.5 1 1.5
v 1.5 2 1.5
v 1.5 1 0.5
v 1.5 1 -0.5
v 1.5 2 -1.5
v 1.5 1 -1.5
v -1.5 6 1.5
v -1.5 6 2.5
v 1.5 2 2.5
v 1.5 3 1.5
v 1.5 3 2.5
v 0.5 7 0.5
v 0.5 7 -0.5
v 0.5 8 -0.5
v 0.5 8 0.5
v 2.5 3 0.5
v 2.5 3 -0.5
v 2.5 4 -0.5
v 2.5 4 0.5
v -1.5 3 0.5
v -1.5 3 -0.5
v 1.5 6 0.5
v 1.5 6 -0.5
v 1.5 7 -0.5
v 1.5 7 0.5
v 3.5 0 0.5
v 3.5 0 -0.5
v 3.5 1 -0.5
v 3.5 1 0.5
v 1.5 5 -0.5
v 1.5 5 0.5
v 1.5 4 -1.5
v 1.5 4 -2.5
v 3.5 0 3.5
v 3.5 0 2.5
v 3.5 1 2.5
v 3.5 1 3.5
v 2.5 2 0.5
v 2.5 2 -0.5
v 1.5 1 -2.5
v 1.5 2 -2.5
v 2.5 2 1.5
v 2.5 3 1.5
v -0.5 2 1.5
v -0.5 2 0.5
v -0.5 3 0.5
v -0.5 3 1.5
v 3.5 0 -2.5
v 3.5 0 -3.5
v 3.5 1 -3.5
v 3.5 1 -2.5
v 3.5 0 -1.5
v 3.5 1 -1.5
v 2.5 4 1.5
v 1.5 3 -2.5
v 1.5 3 -1.5
v 0.5 1 -2.5
v 0.5 1 -3.5
v 0.5 2 -3.5
v 0.5 2 -2.5
v -0.5 2 -0.5
v -0.5 2 -1.5
v -0.5 3 -1.5
v -0.5 3 -0.5
v 3.5 0 1.5
v 3.5 1 1.5
v -1.5 6 -2.5
v -1.5 6 -1.5
v -0.5 4 -1.5
v -0.5 4 -2.5
v -0.5 5 -2.5
v 2.5 2 -1.5
v 2.5 3 -1.5
v 2.5 4 -1.5
v 2.5 5 -1.5
v 2.5 5 -0.5
v 0.5 6 1.5
v 0.5 6 0.5
v 0.5 7 1.5
v 2.5 5 0.5
v 2.5 5 1.5
v -0.5 4 0.5
v -0.5 4 1.5
v -0.5 4 -0.5
v 0.5 5 0.5
v 2.5 5 2.5
v 2.5 6 1.5
v 2.5 6 2.5
v 2.5 5 -2.5
v 2.5 6 -2.5
v 2.5 6 -1.5
v -0.5 4 2.5
v -0.5 5 2.5
v 1.5 4 1.5
v 1.5 4 2.5
v 0.5 1 3.5
v 0.5 1 2.5
v 0.5 2 2.5
v 0.5 2 3.5
v 0.5 5 -0.5
v 0.5 6 -1.5
v 0.5 6 -0.5
v 0.5 7 -1.5
v 1.5 1 2.5
v -1.5 1 -0.5
v -1.5 2 -0.5
v -1.5 1 0.5
v -1.5 2 0.5
v 3.5 2 -0.5
v 3.5 2 0.5
v 2.5 1 1.5
v 2.5 1 0.5
v 2.5 1 -0.5
v 2.5 1 -1.5
v 0.5 3 2.5
v -0.5 1 -1.5
v -2.5 0 3.5
v -2.5 1 3.5
v 1.5 0 3.5
v 2.5 0 3.5
v 2.5 1 3.5
v 1.5 1 3.5
v 0.5 0 3.5
v -0.5 0 3.5
v -0.5 3 2.5
v 0.5 1 -1.5
v -1.5 0 3.5
v -1.5 1 3.5
v 0.5 0 -3.5
v 1.5 1 -3.5
v 1.5 0 -3.5
v 2.5 1 -3.5
v 2.5 0 -3.5
v -0.5 3 -2.5
v 0.5 3 -2.5
v -2.5 0 -3.5
v -2.5 1 -3.5
v -1.5 1 -3.5
v -1.5 0 -3.5
v -0.5 0 -3.5
v 0.5 1 1.5
v -0.5 1 1.5
v -2.5 0 -1.5
v -2.5 0 -2.5
v -1.5 0 -2.5
v -1.5 0 -1.5
v -2.5 0 -0.5
v -1.5 0 -0.5
v -0.5 0 1.5
v -0.5 0 0.5
v 0.5 0 0.5
v 0.5 0 1.5
v -0.5 0 2.5
v 0.5 0 2.5
v 1.5 0 1.5
v 1.5 0 2.5
v -2.5 0 1.5
v -2.5 0 0.5
v -1.5 0 0.5
v -1.5 0 1.5
v -2.5 0 2.5
v -1.5 0 2.5
v -0.5 0 -2.5
v -0.5 0 -1.5
v 2.5 0 1.5
v 2.5 0 2.5
v -0.5 0 -0.5
v 0.5 0 -0.5
v 1.5 0 0.5
v 2.5 0 0.5
v 1.5 0 -0.5
v 0.5 0 -1.5
v 0.5 0 -2.5
v 1.5 0 -2.5
v 1.5 0 -1.5
v 2.5 0 -2.5
v 2.5 0 -1.5
v 2.5 0 -0.5
v -2.5 1 -2.5
v 0.5 1 0.5
v -0.5 1 0.5
v -2.5 1 2.5
v 2.5 1 2.5
v 0.5 1 -0.5
v -0.5 1 -0.5
v 2.5 1 -2.5

# faces

usemtl palette

f 1/3/1 2/3/1 3/3/1 4/3/1

f 5/3/1 6/3/1 7/3/1 8/3/1

f 9/1/1 10/1/1 11/1/1 12/1/1

f 13/1/1 14/1/1 15/1/1 16/1/1

f 17/1/1 18/1/1 19/1/1 20/1/1

f 21/3/1 22/3/1 23/3/1 24/3/1

f 25/1/1 26/1/1 27/1/1 28/1/1

f 29/1/1 30/1/1 6/1/1 5/1/1

f 31/1/1 32/1/1 33/1/1 34/1/1

f 35/3/1 36/3/1 37/3/1 38/3/1

f 6/3/1 39/3/1 40/3/1 7/3/1

f 41/1/1 17/1/1 20/1/1 42/1/1

f 43/3/1 44/3/1 45/3/1 46/3/1

f 47/3/1 48/3/1 49/3/1 50/3/1

f 51/1/1 52/1/1 53/1/1 54/1/1

f 55/1/1 56/1/1 57/1/1 58/1/1

f 58/1/1 57/1/1 59/1/1 60/1/1

f 22/3/1 43/3/1 46/3/1 23/3/1

f 61/3/1 62/3/1 63/3/1 64/3/1

f 60/1/1 59/1/1 32/1/1 31/1/1

f 52/1/1 9/1/1 12/1/1 53/1/1

f 65/3/1 66/3/1 67/3/1 68/3/1

f 40/3/1 69/3/1 70/3/1 71/3/1

f 44/3/1 72/3/1 73/3/1 45/3/1

f 74/3/1 4/3/1 75/3/1 30/3/1

f 48/3/1 76/3/1 77/3/1 49/3/1

f 78/1/1 79/1/1 13/1/1 80/1/1

f 28/1/1 27/1/1 81/1/1 82/1/1

f 82/1/1 81/1/1 56/1/1 55/1/1

f 62/3/1 83/3/1 35/3/1 63/3/1

f 84/3/1 74/3/1 30/3/1 29/3/1

f 85/1/1 78/1/1 80/1/1 86/1/1

f 87/3/1 88/3/1 89/3/1 90/3/1

f 91/3/1 92/3/1 93/3/1 94/3/1

f 95/3/1 96/3/1 97/3/1 98/3/1

f 99/3/1 95/3/1 98/3/1 100/3/1

f 101/3/1 102/3/1 103/3/1 76/3/1

f 104/3/1 99/3/1 100/3/1 105/3/1

f 106/3/1 107/3/1 108/3/1 109/3/1

f 110/1/1 111/1/1 112/1/1 113/1/1

f 111/1/1 16/1/1 114/1/1 112/1/1

f 115/3/1 104/3/1 105/3/1 116/3/1

f 117/3/1 118/3/1 119/3/1 120/3/1

f 121/3/1 122/3/1 123/3/1 124/3/1

f 122/3/1 84/3/1 29/3/1 123/3/1

f 118/3/1 5/3/1 8/3/1 119/3/1

f 123/1/1 29/1/1 5/1/1 118/1/1

f 56/3/1 125/3/1 126/3/1 57/3/1

f 127/3/1 128/3/1 41/3/1 129/3/1

f 130/3/1 42/3/1 131/3/1 132/3/1

f 129/3/1 41/3/1 42/3/1 130/3/1

f 96/3/2 97/3/2 133/3/2 134/3/2

f 135/3/2 128/3/2 136/3/2 137/3/2

f 138/1/2 139/1/2 140/1/2 141/1/2

f 142/1/2 143/1/2 144/1/2 145/1/2

f 146/1/2 147/1/2 54/1/2 51/1/2

f 148/1/2 149/1/2 150/1/2 151/1/2

f 152/1/2 153/1/2 154/1/2 155/1/2

f 18/1/2 19/1/2 156/1/2 157/1/2

f 158/3/2 159/3/2 94/3/2 91/3/2

f 160/1/2 161/1/2 162/1/2 163/1/2

f 164/1/2 165/1/2 143/1/2 142/1/2

f 132/3/2 166/3/2 167/3/2 131/3/2

f 168/3/2 164/3/2 142/3/2 169/3/2

f 170/3/2 171/3/2 172/3/2 173/3/2

f 174/1/2 175/1/2 176/1/2 177/1/2

f 153/1/2 178/1/2 179/1/2 154/1/2

f 169/3/2 142/3/2 145/3/2 180/3/2

f 131/3/2 167/3/2 181/3/2 182/3/2

f 183/3/2 184/3/2 185/3/2 186/3/2

f 182/3/2 181/3/2 159/3/2 158/3/2

f 187/3/2 188/3/2 189/3/2 190/3/2

f 161/1/2 191/1/2 192/1/2 162/1/2

f 72/3/2 73/3/2 193/3/2 194/3/2

f 195/3/2 196/3/2 197/3/2 113/3/2

f 165/3/2 198/3/2 199/3/2 143/3/2

f 144/3/2 200/3/2 201/3/2 202/3/2

f 203/1/2 204/1/2 138/1/2 205/1/2

f 180/3/2 145/3/2 206/3/2 207/3/2

f 173/3/2 172/3/2 208/3/2 209/3/2

f 178/1/2 174/1/2 177/1/2 179/1/2

f 190/3/2 189/3/2 195/3/2 210/3/2

f 191/1/2 152/1/2 155/1/2 192/1/2

f 103/1/2 211/1/2 204/1/2 203/1/2

f 212/3/2 207/3/2 213/3/2 214/3/2

f 201/3/2 215/3/2 216/3/2 217/3/2

f 218/3/2 209/3/2 85/3/2 219/3/2

f 137/3/2 136/3/2 220/3/2 221/3/2

f 221/3/2 220/3/2 90/3/2 87/3/2

f 222/3/2 223/3/2 224/3/2 225/3/2

f 226/1/2 36/1/2 227/1/2 228/1/2

f 143/3/2 199/3/2 200/3/2 144/3/2

f 157/1/2 156/1/2 149/1/2 148/1/2

f 228/1/2 227/1/2 229/1/2 139/1/2

f 230/3/2 127/3/2 128/3/2 135/3/2

f 231/3/2 21/3/2 22/3/2 232/3/2

f 233/3/2 231/3/2 232/3/2 234/3/2

f 116/3/2 233/3/2 234/3/2 105/3/2

f 234/1/2 232/1/2 147/1/2 146/1/2

f 155/3/2 154/3/2 235/3/2 236/3/2

f 237/3/2 238/3/2 164/3/2 168/3/2

f 239/3/2 240/3/2 198/3/2 165/3/2

f 1/3/3 96/3/3 134/3/3 2/3/3

f 9/1/3 80/1/3 13/1/3 10/1/3

f 224/3/3 135/3/3 137/3/3 241/3/3

f 13/1/3 138/1/3 141/1/3 14/1/3

f 21/3/3 242/3/3 188/3/3 22/3/3

f 25/1/3 243/1/3 244/1/3 26/1/3

f 245/1/3 246/1/3 247/1/3 248/1/3

f 249/1/3 245/1/3 248/1/3 222/1/3

f 204/1/3 148/1/3 151/1/3 138/1/3

f 189/1/3 63/1/3 35/1/3 195/1/3

f 250/1/3 249/1/3 222/1/3 106/1/3

f 6/3/3 54/3/3 53/3/3 39/3/3

f 108/1/3 224/1/3 241/1/3 251/1/3

f 246/1/3 160/1/3 163/1/3 247/1/3

f 252/3/3 132/3/3 131/3/3 64/3/3

f 128/3/3 168/3/3 169/3/3 136/3/3

f 61/3/3 42/3/3 20/3/3 62/3/3

f 136/3/3 169/3/3 180/3/3 220/3/3

f 209/1/3 76/1/3 103/1/3 85/1/3

f 52/1/3 86/1/3 80/1/3 9/1/3

f 232/3/3 187/3/3 190/3/3 147/3/3

f 188/1/3 64/1/3 63/1/3 189/1/3

f 40/3/3 72/3/3 194/3/3 69/3/3

f 74/3/3 98/3/3 97/3/3 4/3/3

f 19/3/3 144/3/3 202/3/3 156/3/3

f 78/1/3 203/1/3 205/1/3 79/1/3

f 220/3/3 180/3/3 207/3/3 90/3/3

f 62/3/3 20/3/3 19/3/3 83/3/3

f 84/3/3 100/3/3 98/3/3 74/3/3

f 253/1/3 250/1/3 106/1/3 254/1/3

f 243/1/3 253/1/3 254/1/3 244/1/3

f 147/3/3 190/3/3 210/3/3 54/3/3

f 85/1/3 103/1/3 203/1/3 78/1/3

f 87/3/3 212/3/3 214/3/3 88/3/3

f 91/3/3 201/3/3 217/3/3 92/3/3

f 95/3/3 218/3/3 219/3/3 96/3/3

f 99/3/3 251/3/3 218/3/3 95/3/3

f 241/3/3 137/3/3 221/3/3 101/3/3

f 101/3/3 221/3/3 87/3/3 102/3/3

f 104/3/3 108/3/3 251/3/3 99/3/3

f 106/3/3 222/3/3 225/3/3 107/3/3

f 211/1/3 157/1/3 148/1/3 204/1/3

f 242/3/3 252/3/3 64/3/3 188/3/3

f 251/1/3 241/1/3 101/1/3 218/1/3

f 223/3/3 230/3/3 135/3/3 224/3/3

f 115/3/3 109/3/3 108/3/3 104/3/3

f 121/3/3 116/3/3 105/3/3 122/3/3

f 122/3/3 105/3/3 100/3/3 84/3/3

f 56/3/3 124/3/3 123/3/3 125/3/3

f 238/3/3 155/3/3 236/3/3 164/3/3

f 127/3/3 237/3/3 168/3/3 128/3/3

f 4/3/4 3/3/4 133/3/4 97/3/4

f 8/3/4 7/3/4 44/3/4 43/3/4

f 12/1/4 11/1/4 16/1/4 111/1/4

f 16/1/4 15/1/4 140/1/4 139/1/4

f 24/3/4 23/3/4 66/3/4 65/3/4

f 255/1/4 184/1/4 256/1/4 257/1/4

f 257/1/4 256/1/4 258/1/4 259/1/4

f 228/1/4 139/1/4 150/1/4 149/1/4

f 260/1/4 196/1/4 38/1/4 261/1/4

f 262/1/4 263/1/4 264/1/4 265/1/4

f 34/1/4 33/1/4 263/1/4 262/1/4

f 266/1/4 68/1/4 184/1/4 255/1/4

f 38/3/4 37/3/4 94/3/4 159/3/4

f 7/3/4 40/3/4 72/3/4 44/3/4

f 170/1/4 173/1/4 48/1/4 47/1/4

f 265/1/4 264/1/4 68/1/4 266/1/4

f 46/3/4 45/3/4 196/3/4 260/3/4

f 183/3/4 186/3/4 167/3/4 166/3/4

f 50/3/4 49/3/4 17/3/4 41/3/4

f 234/3/4 146/3/4 172/3/4 171/3/4

f 259/1/4 258/1/4 176/1/4 175/1/4

f 23/3/4 46/3/4 260/3/4 66/3/4

f 186/3/4 261/3/4 181/3/4 167/3/4

f 53/1/4 12/1/4 111/1/4 110/1/4

f 68/3/4 67/3/4 185/3/4 184/3/4

f 261/3/4 38/3/4 159/3/4 181/3/4

f 66/1/4 260/1/4 261/1/4 186/1/4

f 71/3/4 70/3/4 193/3/4 73/3/4

f 45/3/4 73/3/4 197/3/4 196/3/4

f 131/3/4 182/3/4 199/3/4 198/3/4

f 30/3/4 75/3/4 52/3/4 51/3/4

f 158/3/4 91/3/4 201/3/4 200/3/4

f 49/3/4 77/3/4 18/3/4 17/3/4

f 18/3/4 157/3/4 206/3/4 145/3/4

f 146/3/4 51/3/4 208/3/4 172/3/4

f 90/3/4 89/3/4 213/3/4 207/3/4

f 195/1/4 113/1/4 36/1/4 35/1/4

f 94/3/4 93/3/4 216/3/4 215/3/4

f 113/1/4 112/1/4 227/1/4 36/1/4

f 182/3/4 158/3/4 200/3/4 199/3/4

f 226/1/4 228/1/4 149/1/4 156/1/4

f 112/1/4 114/1/4 229/1/4 227/1/4

f 173/1/4 209/1/4 76/1/4 48/1/4

f 267/3/4 47/3/4 128/3/4 127/3/4

f 268/3/4 170/3/4 47/3/4 267/3/4

f 116/3/4 105/3/4 170/3/4 268/3/4

f 120/3/4 119/3/4 22/3/4 21/3/4

f 119/3/4 8/3/4 43/3/4 22/3/4

f 57/3/4 126/3/4 118/3/4 117/3/4

f 239/3/4 165/3/4 235/3/4 154/3/4

f 132/3/4 131/3/4 198/3/4 240/3/4

f 269/1/5 270/1/5 271/1/5 272/1/5

f 273/1/5 269/1/5 272/1/5 274/1/5

f 1/3/5 4/3/5 97/3/5 96/3/5

f 275/1/5 276/1/5 277/1/5 278/1/5

f 279/1/5 275/1/5 278/1/5 280/1/5

f 280/1/5 278/1/5 281/1/5 282/1/5

f 283/1/5 284/1/5 285/1/5 286/1/5

f 284/1/5 273/1/5 274/1/5 285/1/5

f 287/1/5 283/1/5 286/1/5 288/1/5

f 272/1/5 271/1/5 289/1/5 290/1/5

f 282/1/5 281/1/5 291/1/5 292/1/5

f 276/1/5 293/1/5 294/1/5 277/1/5

f 281/1/5 295/1/5 296/1/5 291/1/5

f 277/1/5 294/1/5 297/1/5 295/1/5

f 278/2/5 277/2/5 295/2/5 281/2/5

f 298/1/5 299/1/5 300/1/5 301/1/5

f 290/1/5 289/1/5 299/1/5 298/1/5

f 301/1/5 300/1/5 302/1/5 303/1/5

f 297/1/5 301/1/5 303/1/5 304/1/5

f 295/1/5 297/1/5 304/1/5 296/1/5

f 299/1/5 255/1/5 257/1/5 300/1/5

f 25/1/5 28/1/5 287/1/5 243/1/5

f 245/1/5 282/1/5 292/1/5 246/1/5

f 300/1/5 257/1/5 259/1/5 302/1/5

f 249/1/5 280/1/5 282/1/5 245/1/5

f 296/1/5 304/1/5 153/1/5 152/1/5

f 270/1/5 262/1/5 265/1/5 271/1/5

f 31/1/5 34/1/5 262/1/5 270/1/5

f 250/1/5 279/1/5 280/1/5 249/1/5

f 77/1/5 83/1/5 19/1/5 18/1/5

f 289/1/5 266/1/5 255/1/5 299/1/5

f 246/1/5 292/1/5 161/1/5 160/1/5

f 271/1/5 265/1/5 266/1/5 289/1/5

f 47/3/5 50/3/5 41/3/5 128/3/5

f 51/1/5 54/1/5 210/1/5 208/1/5

f 55/1/5 58/1/5 273/1/5 284/1/5

f 105/3/5 234/3/5 171/3/5 170/3/5

f 302/1/5 259/1/5 175/1/5 174/1/5

f 58/1/5 60/1/5 269/1/5 273/1/5

f 304/1/5 303/1/5 178/1/5 153/1/5

f 61/3/5 64/3/5 131/3/5 42/3/5

f 60/1/5 31/1/5 270/1/5 269/1/5

f 209/1/5 208/1/5 77/1/5 76/1/5

f 232/3/5 22/3/5 188/3/5 187/3/5

f 292/1/5 291/1/5 191/1/5 161/1/5

f 40/3/5 71/3/5 73/3/5 72/3/5

f 208/1/5 210/1/5 83/1/5 77/1/5

f 286/2/5 285/2/5 276/2/5 275/2/5

f 28/1/5 82/1/5 283/1/5 287/1/5

f 82/1/5 55/1/5 284/1/5 283/1/5

f 303/1/5 302/1/5 174/1/5 178/1/5

f 253/1/5 288/1/5 279/1/5 250/1/5

f 243/1/5 287/1/5 288/1/5 253/1/5

f 274/2/5 272/2/5 290/2/5 293/2/5

f 294/2/5 298/2/5 301/2/5 297/2/5

f 291/1/5 296/1/5 152/1/5 191/1/5

f 87/3/5 90/3/5 207/3/5 212/3/5

f 210/1/5 195/1/5 35/1/5 83/1/5

f 91/3/5 94/3/5 215/3/5 201/3/5

f 288/1/5 286/1/5 275/1/5 279/1/5

f 285/1/5 274/1/5 293/1/5 276/1/5

f 293/1/5 290/1/5 298/1/5 294/1/5

f 120/1/6 21/1/6 24/1/6 305/1/6

f 2/3/6 134/3/6 133/3/6 3/3/6

f 10/1/6 13/1/6 16/1/6 11/1/6

f 268/1/6 267/1/6 306/1/6 307/1/6

f 308/1/6 115/1/6 116/1/6 121/1/6

f 230/1/6 309/1/6 237/1/6 127/1/6

f 97/3/6 85/3/6 86/3/6 52/3/6

f 307/1/6 306/1/6 310/1/6 311/1/6

f 306/1/6 129/1/6 130/1/6 310/1/6

f 267/2/6 127/2/6 129/2/6 306/2/6

f 14/1/6 141/1/6 140/1/6 15/1/6

f 132/1/6 240/1/6 312/1/6 166/1/6

f 18/1/6 145/1/6 144/1/6 19/1/6

f 183/1/6 166/1/6 256/1/6 184/1/6

f 26/1/6 244/1/6 308/1/6 27/1/6

f 248/1/6 247/1/6 309/1/6 230/1/6

f 30/1/6 51/1/6 54/1/6 6/1/6

f 166/1/6 312/1/6 258/1/6 256/1/6

f 222/1/6 248/1/6 230/1/6 223/1/6

f 138/1/6 151/1/6 150/1/6 139/1/6

f 195/1/6 35/1/6 38/1/6 196/1/6

f 305/1/6 24/1/6 264/1/6 263/1/6

f 32/1/6 305/1/6 263/1/6 33/1/6

f 36/3/6 91/3/6 94/3/6 37/3/6

f 53/3/6 110/3/6 113/3/6 72/3/6

f 39/3/6 53/3/6 72/3/6 40/3/6

f 247/1/6 163/1/6 162/1/6 309/1/6

f 24/1/6 65/1/6 68/1/6 264/1/6

f 103/3/6 90/3/6 157/3/6 211/3/6

f 312/1/6 177/1/6 176/1/6 258/1/6

f 57/1/6 117/1/6 120/1/6 59/1/6

f 239/1/6 154/1/6 179/1/6 240/1/6

f 226/3/6 156/3/6 91/3/6 36/3/6

f 59/1/6 120/1/6 305/1/6 32/1/6

f 66/3/6 186/3/6 185/3/6 67/3/6

f 309/1/6 162/1/6 192/1/6 237/1/6

f 69/3/6 194/3/6 193/3/6 70/3/6

f 72/3/6 113/3/6 197/3/6 73/3/6

f 4/3/6 97/3/6 52/3/6 75/3/6

f 156/3/6 202/3/6 201/3/6 91/3/6

f 79/1/6 205/1/6 138/1/6 13/1/6

f 116/2/6 268/2/6 307/2/6 233/2/6

f 27/1/6 308/1/6 121/1/6 81/1/6

f 90/3/6 207/3/6 206/3/6 157/3/6

f 81/1/6 121/1/6 124/1/6 56/1/6

f 240/1/6 179/1/6 177/1/6 312/1/6

f 254/1/6 106/1/6 109/1/6 115/1/6

f 244/1/6 254/1/6 115/1/6 308/1/6

f 231/2/6 311/2/6 242/2/6 21/2/6

f 310/2/6 130/2/6 132/2/6 252/2/6

f 237/1/6 192/1/6 155/1/6 238/1/6

f 88/3/6 214/3/6 213/3/6 89/3/6

f 92/3/6 217/3/6 216/3/6 93/3/6

f 96/3/6 219/3/6 85/3/6 97/3/6

f 233/1/6 307/1/6 311/1/6 231/1/6

f 311/1/6 310/1/6 252/1/6 242/1/6

f 102/3/6 87/3/6 90/3/6 103/3/6

f 107/3/6 225/3/6 224/3/6 108/3/6

f 16/1/6 139/1/6 229/1/6 114/1/6

f 218/1/6 101/1/6 76/1/6 209/1/6

f 125/3/6 123/3/6 118/3/6 126/3/6

f 164/3/6 236/3/6 235/3/6 165/3/6

# numNormals 6
# numTexCoords 3
# numVerts 312
# numFaces 328
