# MagicaVoxel @ ephtracy

# material
mtllib T1_F_Ember.mtl

# normals
vn -1 0 0
vn 1 0 0
vn 0 0 1
vn 0 0 -1
vn 0 -1 0
vn 0 1 0

# texcoords
vt 0.775391 0.5
vt 0.849609 0.5
vt 0.970703 0.5
vt 0.982422 0.5

# verts
v -2.5 3 -0.5
v -2.5 4 -0.5
v -2.5 4 -1.5
v -2.5 3 -1.5
v -1.5 6 0.5
v -1.5 7 0.5
v -1.5 7 -0.5
v -1.5 6 -0.5
v 0.5 2 2.5
v 0.5 3 2.5
v 0.5 3 1.5
v 0.5 2 1.5
v -0.5 7 0.5
v -0.5 8 0.5
v -0.5 8 -0.5
v -0.5 7 -0.5
v -1.5 1 -1.5
v -1.5 2 -1.5
v -1.5 2 -2.5
v -1.5 1 -2.5
v -3.5 0 3.5
v -3.5 1 3.5
v -3.5 1 2.5
v -3.5 0 2.5
v 0.5 2 0.5
v 0.5 3 0.5
v 0.5 3 -0.5
v 0.5 2 -0.5
v -3.5 0 -2.5
v -3.5 1 -2.5
v -3.5 1 -3.5
v -3.5 0 -3.5
v -2.5 5 -0.5
v -2.5 5 -1.5
v -1.5 3 -1.5
v -1.5 4 -1.5
v -1.5 4 -2.5
v -1.5 3 -2.5
v 0.5 1 -1.5
v 0.5 2 -1.5
v 0.5 2 -2.5
v 0.5 1 -2.5
v -3.5 0 0.5
v -3.5 1 0.5
v -3.5 1 -0.5
v -3.5 0 -0.5
v -3.5 1 -1.5
v -3.5 0 -1.5
v 0.5 3 -1.5
v 0.5 3 -2.5
v -1.5 5 0.5
v -1.5 5 -0.5
v -1.5 3 0.5
v -1.5 4 0.5
v -1.5 4 -0.5
v -1.5 3 -0.5
v 0.5 4 -1.5
v 0.5 4 -2.5
v 1.5 1 1.5
v 1.5 2 1.5
v 1.5 2 0.5
v 1.5 1 0.5
v -3.5 5 0.5
v -3.5 6 0.5
v -3.5 6 -0.5
v -3.5 5 -0.5
v -2.5 4 1.5
v -2.5 5 1.5
v -2.5 5 0.5
v -2.5 4 0.5
v -0.5 6 1.5
v -0.5 7 1.5
v -0.5 6 0.5
v -3.5 1 1.5
v -3.5 0 1.5
v -2.5 3 1.5
v -2.5 3 0.5
v -0.5 5 1.5
v -0.5 5 0.5
v 2.5 5 0.5
v 2.5 6 0.5
v 2.5 6 -0.5
v 2.5 5 -0.5
v 1.5 5 2.5
v 1.5 6 2.5
v 1.5 6 1.5
v 1.5 5 1.5
v -1.5 3 2.5
v -1.5 4 2.5
v -1.5 4 1.5
v -1.5 3 1.5
v 0.5 4 2.5
v 0.5 4 1.5
v -1.5 2 2.5
v -1.5 2 1.5
v 1.5 1 -0.5
v 1.5 2 -0.5
v 1.5 2 -1.5
v 1.5 1 -1.5
v -0.5 5 -0.5
v -0.5 6 -0.5
v -0.5 6 -1.5
v -0.5 5 -1.5
v -0.5 7 -1.5
v 0.5 4 0.5
v 0.5 4 -0.5
v -2.5 4 2.5
v -2.5 5 2.5
v 0.5 1 2.5
v 0.5 1 1.5
v -2.5 6 2.5
v -2.5 6 1.5
v -1.5 1 2.5
v -1.5 1 1.5
v -2.5 1 -0.5
v -2.5 2 -0.5
v -2.5 2 -1.5
v -2.5 1 -1.5
v -0.5 1 -0.5
v -0.5 2 -0.5
v -0.5 2 -1.5
v -0.5 1 -1.5
v -2.5 1 1.5
v -2.5 2 1.5
v -2.5 2 0.5
v -2.5 1 0.5
v -1.5 2 0.5
v -1.5 2 -0.5
v -0.5 4 3.5
v -0.5 5 3.5
v -0.5 5 2.5
v -0.5 4 2.5
v -3.5 4 0.5
v -3.5 4 -0.5
v -0.5 4 -2.5
v -0.5 5 -2.5
v -0.5 5 -3.5
v -0.5 4 -3.5
v 2.5 6 1.5
v 2.5 7 1.5
v 2.5 7 0.5
v 2.5 5 1.5
v 2.5 6 -1.5
v 2.5 5 -1.5
v 2.5 7 -0.5
v 2.5 7 -1.5
v 0.5 6 3.5
v 0.5 7 3.5
v 0.5 7 2.5
v 0.5 6 2.5
v -1.5 5 3.5
v -1.5 6 3.5
v -1.5 6 2.5
v -1.5 5 2.5
v -1.5 7 3.5
v -1.5 7 2.5
v -3.5 5 1.5
v -3.5 6 1.5
v -3.5 7 1.5
v -3.5 7 0.5
v -3.5 6 -1.5
v -3.5 5 -1.5
v -3.5 7 -0.5
v -3.5 7 -1.5
v 0.5 6 -2.5
v 0.5 7 -2.5
v 0.5 7 -3.5
v 0.5 6 -3.5
v -1.5 6 -2.5
v -1.5 7 -2.5
v -1.5 7 -3.5
v -1.5 6 -3.5
v -1.5 5 -2.5
v -1.5 5 -3.5
v -2.5 5 -2.5
v -2.5 4 -2.5
v -2.5 6 -1.5
v -2.5 6 -2.5
v 1.5 5 -1.5
v 1.5 6 -1.5
v 1.5 6 -2.5
v 1.5 5 -2.5
v 0.5 1 0.5
v 0.5 1 -0.5
v -0.5 1 1.5
v -0.5 2 1.5
v -0.5 2 0.5
v -0.5 1 0.5
v -1.5 1 0.5
v -1.5 1 -0.5
v 1.5 2 2.5
v 1.5 3 1.5
v 1.5 3 2.5
v 0.5 7 0.5
v 0.5 7 -0.5
v 0.5 8 -0.5
v 0.5 8 0.5
v -0.5 1 -2.5
v -0.5 2 -2.5
v 1.5 3 -0.5
v 1.5 3 0.5
v 1.5 6 0.5
v 1.5 6 -0.5
v 1.5 7 -0.5
v 1.5 7 0.5
v 3.5 0 0.5
v 3.5 0 -0.5
v 3.5 1 -0.5
v 3.5 1 0.5
v 3.5 0 3.5
v 3.5 0 2.5
v 3.5 1 2.5
v 3.5 1 3.5
v -0.5 3 -1.5
v -0.5 3 -2.5
v -0.5 4 -1.5
v 1.5 1 -2.5
v 1.5 2 -2.5
v 2.5 2 1.5
v 2.5 2 0.5
v 2.5 3 0.5
v 2.5 3 1.5
v 3.5 0 -2.5
v 3.5 0 -3.5
v 3.5 1 -3.5
v 3.5 1 -2.5
v 3.5 0 -1.5
v 3.5 1 -1.5
v 2.5 4 0.5
v 2.5 4 1.5
v 1.5 3 -2.5
v 1.5 3 -1.5
v -0.5 3 0.5
v -0.5 3 -0.5
v -0.5 4 -0.5
v -0.5 4 0.5
v 1.5 4 -2.5
v 1.5 4 -1.5
v 3.5 0 1.5
v 3.5 1 1.5
v 2.5 1 1.5
v 2.5 1 0.5
v -2.5 6 -0.5
v -2.5 6 0.5
v 2.5 2 -0.5
v 2.5 2 -1.5
v 2.5 3 -1.5
v 2.5 3 -0.5
v 2.5 4 -0.5
v 2.5 4 -1.5
v 0.5 6 1.5
v 0.5 6 0.5
v 0.5 7 1.5
v 3.5 4 0.5
v 3.5 4 -0.5
v 3.5 5 -0.5
v 3.5 5 0.5
v 0.5 5 1.5
v 0.5 5 0.5
v 3.5 6 -0.5
v 3.5 6 0.5
v 2.5 5 2.5
v 2.5 6 2.5
v -0.5 3 2.5
v -0.5 3 1.5
v -0.5 4 1.5
v 1.5 4 1.5
v 1.5 4 2.5
v -0.5 2 2.5
v 2.5 1 -0.5
v 2.5 1 -1.5
v 0.5 5 -0.5
v 0.5 5 -1.5
v 0.5 6 -1.5
v 0.5 6 -0.5
v 1.5 5 0.5
v 1.5 5 -0.5
v 0.5 7 -1.5
v 1.5 4 -0.5
v 1.5 4 0.5
v 1.5 1 2.5
v -1.5 5 1.5
v -1.5 6 1.5
v -0.5 1 2.5
v 0.5 4 3.5
v 0.5 5 2.5
v 0.5 5 3.5
v 0.5 4 -3.5
v 0.5 5 -3.5
v 0.5 5 -2.5
v 3.5 6 1.5
v 3.5 7 0.5
v 3.5 7 1.5
v 3.5 5 1.5
v 3.5 5 -1.5
v 3.5 6 -1.5
v 3.5 7 -1.5
v 3.5 7 -0.5
v 1.5 5 3.5
v 1.5 6 3.5
v 1.5 7 2.5
v 1.5 7 3.5
v -0.5 6 3.5
v -0.5 6 2.5
v -0.5 7 2.5
v -0.5 7 3.5
v -2.5 7 0.5
v -2.5 7 1.5
v -2.5 7 -1.5
v -2.5 7 -0.5
v 1.5 5 -3.5
v 1.5 6 -3.5
v 1.5 7 -3.5
v 1.5 7 -2.5
v -0.5 6 -2.5
v -0.5 6 -3.5
v -0.5 7 -3.5
v -0.5 7 -2.5
v -1.5 5 -1.5
v -1.5 6 -1.5
v 2.5 4 -2.5
v 2.5 5 -2.5
v 2.5 6 -2.5
v 2.5 4 2.5
v -2.5 0 3.5
v -2.5 1 3.5
v 1.5 0 3.5
v 2.5 0 3.5
v 2.5 1 3.5
v 1.5 1 3.5
v 0.5 0 3.5
v 0.5 1 3.5
v -0.5 0 3.5
v -0.5 1 3.5
v -1.5 0 3.5
v -1.5 1 3.5
v 0.5 0 -3.5
v 0.5 1 -3.5
v 1.5 1 -3.5
v 1.5 0 -3.5
v 2.5 1 -3.5
v 2.5 0 -3.5
v -2.5 0 -3.5
v -2.5 1 -3.5
v -1.5 1 -3.5
v -1.5 0 -3.5
v -0.5 0 -3.5
v -0.5 1 -3.5
v -2.5 0 -1.5
v -2.5 0 -2.5
v -1.5 0 -2.5
v -1.5 0 -1.5
v -2.5 0 -0.5
v -1.5 0 -0.5
v -0.5 0 1.5
v -0.5 0 0.5
v 0.5 0 0.5
v 0.5 0 1.5
v -0.5 0 2.5
v 0.5 0 2.5
v 1.5 0 1.5
v 1.5 0 2.5
v -2.5 0 1.5
v -2.5 0 0.5
v -1.5 0 0.5
v -1.5 0 1.5
v -2.5 0 2.5
v -1.5 0 2.5
v -0.5 0 -2.5
v -0.5 0 -1.5
v 2.5 0 1.5
v 2.5 0 2.5
v -0.5 0 -0.5
v 0.5 0 -0.5
v 1.5 0 0.5
v 2.5 0 0.5
v 1.5 0 -0.5
v 0.5 0 -1.5
v 0.5 0 -2.5
v 1.5 0 -2.5
v 1.5 0 -1.5
v 2.5 0 -2.5
v 2.5 0 -1.5
v 2.5 0 -0.5
v -2.5 1 -2.5
v -2.5 1 2.5
v 2.5 1 2.5
v 2.5 1 -2.5

# faces

usemtl palette

f 1/4/1 2/4/1 3/4/1 4/4/1

f 5/2/1 6/2/1 7/2/1 8/2/1

f 9/4/1 10/4/1 11/4/1 12/4/1

f 13/2/1 14/2/1 15/2/1 16/2/1

f 17/4/1 18/4/1 19/4/1 20/4/1

f 21/2/1 22/2/1 23/2/1 24/2/1

f 25/4/1 26/4/1 27/4/1 28/4/1

f 29/2/1 30/2/1 31/2/1 32/2/1

f 2/4/1 33/4/1 34/4/1 3/4/1

f 35/4/1 36/4/1 37/4/1 38/4/1

f 39/4/1 40/4/1 41/4/1 42/4/1

f 43/2/1 44/2/1 45/2/1 46/2/1

f 46/2/1 45/2/1 47/2/1 48/2/1

f 18/4/1 35/4/1 38/4/1 19/4/1

f 48/2/1 47/2/1 30/2/1 29/2/1

f 40/4/1 49/4/1 50/4/1 41/4/1

f 51/2/1 5/2/1 8/2/1 52/2/1

f 53/4/1 54/4/1 55/4/1 56/4/1

f 49/4/1 57/4/1 58/4/1 50/4/1

f 59/4/1 60/4/1 61/4/1 62/4/1

f 63/4/1 64/4/1 65/4/1 66/4/1

f 67/4/1 68/4/1 69/4/1 70/4/1

f 71/2/1 72/2/1 13/2/1 73/2/1

f 24/2/1 23/2/1 74/2/1 75/2/1

f 75/2/1 74/2/1 44/2/1 43/2/1

f 76/4/1 67/4/1 70/4/1 77/4/1

f 78/2/1 71/2/1 73/2/1 79/2/1

f 80/4/1 81/4/1 82/4/1 83/4/1

f 84/4/1 85/4/1 86/4/1 87/4/1

f 88/4/1 89/4/1 90/4/1 91/4/1

f 10/4/1 92/4/1 93/4/1 11/4/1

f 94/4/1 88/4/1 91/4/1 95/4/1

f 96/4/1 97/4/1 98/4/1 99/4/1

f 100/2/1 101/2/1 102/2/1 103/2/1

f 101/2/1 16/2/1 104/2/1 102/2/1

f 26/4/1 105/4/1 106/4/1 27/4/1

f 107/4/1 108/4/1 68/4/1 67/4/1

f 109/4/1 9/4/1 12/4/1 110/4/1

f 108/4/1 111/4/1 112/4/1 68/4/1

f 113/4/1 94/4/1 95/4/1 114/4/1

f 115/4/1 116/4/1 117/4/1 118/4/1

f 119/4/1 120/4/1 121/4/1 122/4/1

f 123/4/1 124/4/1 125/4/1 126/4/1

f 124/4/1 76/4/1 77/4/1 125/4/1

f 116/4/1 1/4/1 4/4/1 117/4/1

f 127/4/1 53/4/1 56/4/1 128/4/1

f 129/4/1 130/4/1 131/4/1 132/4/1

f 133/4/1 63/4/1 66/4/1 134/4/1

f 135/4/1 136/4/1 137/4/1 138/4/1

f 139/4/1 140/4/1 141/4/1 81/4/1

f 142/4/1 139/4/1 81/4/1 80/4/1

f 83/4/1 82/4/1 143/4/1 144/4/1

f 82/4/1 145/4/1 146/4/1 143/4/1

f 147/4/1 148/4/1 149/4/1 150/4/1

f 151/4/1 152/4/1 153/4/1 154/4/1

f 152/4/1 155/4/1 156/4/1 153/4/1

f 157/4/1 158/4/1 64/4/1 63/4/1

f 158/4/1 159/4/1 160/4/1 64/4/1

f 66/4/1 65/4/1 161/4/1 162/4/1

f 65/4/1 163/4/1 164/4/1 161/4/1

f 165/4/1 166/4/1 167/4/1 168/4/1

f 169/4/1 170/4/1 171/4/1 172/4/1

f 173/4/1 169/4/1 172/4/1 174/4/1

f 3/4/1 34/4/1 175/4/1 176/4/1

f 34/4/1 177/4/1 178/4/1 175/4/1

f 179/4/1 180/4/1 181/4/1 182/4/1

f 183/4/1 25/4/1 28/4/1 184/4/1

f 185/4/1 186/4/1 187/4/1 188/4/1

f 189/4/1 127/4/1 128/4/1 190/4/1

f 191/4/2 60/4/2 192/4/2 193/4/2

f 194/2/2 195/2/2 196/2/2 197/2/2

f 122/4/2 198/4/2 199/4/2 121/4/2

f 61/4/2 97/4/2 200/4/2 201/4/2

f 202/2/2 203/2/2 204/2/2 205/2/2

f 206/2/2 207/2/2 208/2/2 209/2/2

f 210/2/2 211/2/2 212/2/2 213/2/2

f 214/4/2 215/4/2 135/4/2 216/4/2

f 99/4/2 217/4/2 218/4/2 98/4/2

f 219/4/2 220/4/2 221/4/2 222/4/2

f 223/2/2 224/2/2 225/2/2 226/2/2

f 121/4/2 199/4/2 215/4/2 214/4/2

f 207/2/2 227/2/2 228/2/2 208/2/2

f 222/4/2 221/4/2 229/4/2 230/4/2

f 98/4/2 218/4/2 231/4/2 232/4/2

f 233/4/2 234/4/2 235/4/2 236/4/2

f 232/4/2 231/4/2 237/4/2 238/4/2

f 211/2/2 239/2/2 240/2/2 212/2/2

f 241/4/2 242/4/2 220/4/2 219/4/2

f 69/4/2 33/4/2 243/4/2 244/4/2

f 245/4/2 246/4/2 247/4/2 248/4/2

f 249/4/2 250/4/2 144/4/2 83/4/2

f 251/2/2 252/2/2 194/2/2 253/2/2

f 254/4/2 255/4/2 256/4/2 257/4/2

f 230/4/2 229/4/2 80/4/2 142/4/2

f 227/2/2 223/2/2 226/2/2 228/2/2

f 239/2/2 206/2/2 209/2/2 240/2/2

f 258/2/2 259/2/2 252/2/2 251/2/2

f 257/4/2 256/4/2 260/4/2 261/4/2

f 262/4/2 142/4/2 139/4/2 263/4/2

f 264/4/2 265/4/2 266/4/2 132/4/2

f 193/4/2 192/4/2 267/4/2 268/4/2

f 269/4/2 186/4/2 265/4/2 264/4/2

f 270/4/2 271/4/2 246/4/2 245/4/2

f 272/2/2 273/2/2 274/2/2 275/2/2

f 248/4/2 247/4/2 250/4/2 249/4/2

f 276/2/2 277/2/2 203/2/2 202/2/2

f 275/2/2 274/2/2 278/2/2 195/2/2

f 201/4/2 200/4/2 279/4/2 280/4/2

f 281/4/2 59/4/2 60/4/2 191/4/2

f 154/4/2 282/4/2 283/4/2 153/4/2

f 284/4/2 185/4/2 186/4/2 269/4/2

f 190/4/2 17/4/2 18/4/2 128/4/2

f 184/4/2 39/4/2 40/4/2 28/4/2

f 114/4/2 189/4/2 127/4/2 95/4/2

f 187/4/2 120/4/2 234/4/2 233/4/2

f 285/4/2 92/4/2 286/4/2 287/4/2

f 58/4/2 288/4/2 289/4/2 290/4/2

f 291/4/2 261/4/2 292/4/2 293/4/2

f 294/4/2 257/4/2 261/4/2 291/4/2

f 256/4/2 295/4/2 296/4/2 260/4/2

f 260/4/2 296/4/2 297/4/2 298/4/2

f 299/4/2 84/4/2 85/4/2 300/4/2

f 300/4/2 85/4/2 301/4/2 302/4/2

f 303/4/2 304/4/2 305/4/2 306/4/2

f 68/4/2 69/4/2 244/4/2 112/4/2

f 112/4/2 244/4/2 307/4/2 308/4/2

f 33/4/2 34/4/2 177/4/2 243/4/2

f 243/4/2 177/4/2 309/4/2 310/4/2

f 182/4/2 311/4/2 312/4/2 181/4/2

f 181/4/2 312/4/2 313/4/2 314/4/2

f 315/4/2 316/4/2 317/4/2 318/4/2

f 319/4/2 173/4/2 169/4/2 320/4/2

f 250/4/2 321/4/2 322/4/2 144/4/2

f 144/4/2 322/4/2 323/4/2 143/4/2

f 324/4/2 230/4/2 142/4/2 262/4/2

f 62/4/2 96/4/2 97/4/2 61/4/2

f 110/4/2 183/4/2 25/4/2 12/4/2

f 188/4/2 119/4/2 120/4/2 187/4/2

f 130/4/3 287/4/3 147/4/3 303/4/3

f 1/4/3 56/4/3 55/4/3 2/4/3

f 5/2/3 73/2/3 13/2/3 6/2/3

f 9/4/3 191/4/3 193/4/3 10/4/3

f 13/2/3 194/2/3 197/2/3 14/2/3

f 265/4/3 11/4/3 93/4/3 266/4/3

f 17/4/3 122/4/3 121/4/3 18/4/3

f 21/2/3 325/2/3 326/2/3 22/2/3

f 327/2/3 328/2/3 329/2/3 330/2/3

f 331/2/3 327/2/3 330/2/3 332/2/3

f 252/2/3 202/2/3 205/2/3 194/2/3

f 120/4/3 28/4/3 27/4/3 234/4/3

f 333/2/3 331/2/3 332/2/3 334/2/3

f 234/4/3 27/4/3 106/4/3 235/4/3

f 328/2/3 210/2/3 213/2/3 329/2/3

f 186/4/3 12/4/3 11/4/3 265/4/3

f 39/4/3 99/4/3 98/4/3 40/4/3

f 60/4/3 219/4/3 222/4/3 192/4/3

f 192/4/3 222/4/3 230/4/3 267/4/3

f 51/2/3 79/2/3 73/2/3 5/2/3

f 59/4/3 241/4/3 219/4/3 60/4/3

f 97/4/3 245/4/3 248/4/3 200/4/3

f 71/2/3 251/2/3 253/2/3 72/2/3

f 229/4/3 254/4/3 257/4/3 80/4/3

f 76/4/3 91/4/3 90/4/3 67/4/3

f 335/2/3 333/2/3 334/2/3 336/2/3

f 325/2/3 335/2/3 336/2/3 326/2/3

f 78/2/3 258/2/3 251/2/3 71/2/3

f 84/4/3 262/4/3 263/4/3 85/4/3

f 89/4/3 132/4/3 131/4/3 154/4/3

f 88/4/3 264/4/3 132/4/3 89/4/3

f 10/4/3 193/4/3 268/4/3 92/4/3

f 92/4/3 268/4/3 84/4/3 286/4/3

f 94/4/3 269/4/3 264/4/3 88/4/3

f 96/4/3 270/4/3 245/4/3 97/4/3

f 200/4/3 248/4/3 249/4/3 279/4/3

f 259/2/3 276/2/3 202/2/3 252/2/3

f 107/4/3 89/4/3 154/4/3 108/4/3

f 109/4/3 281/4/3 191/4/3 9/4/3

f 108/4/3 154/4/3 153/4/3 111/4/3

f 113/4/3 284/4/3 269/4/3 94/4/3

f 115/4/3 190/4/3 128/4/3 116/4/3

f 119/4/3 184/4/3 28/4/3 120/4/3

f 123/4/3 114/4/3 95/4/3 124/4/3

f 124/4/3 95/4/3 91/4/3 76/4/3

f 116/4/3 128/4/3 56/4/3 1/4/3

f 129/4/3 285/4/3 287/4/3 130/4/3

f 133/4/3 70/4/3 69/4/3 63/4/3

f 136/4/3 290/4/3 165/4/3 315/4/3

f 139/4/3 291/4/3 293/4/3 140/4/3

f 142/4/3 294/4/3 291/4/3 139/4/3

f 82/4/3 260/4/3 298/4/3 145/4/3

f 287/4/3 299/4/3 300/4/3 147/4/3

f 147/4/3 300/4/3 302/4/3 148/4/3

f 151/4/3 130/4/3 303/4/3 152/4/3

f 152/4/3 303/4/3 306/4/3 155/4/3

f 157/4/3 68/4/3 112/4/3 158/4/3

f 158/4/3 112/4/3 308/4/3 159/4/3

f 65/4/3 243/4/3 310/4/3 163/4/3

f 290/4/3 182/4/3 181/4/3 165/4/3

f 165/4/3 181/4/3 314/4/3 166/4/3

f 169/4/3 315/4/3 318/4/3 170/4/3

f 173/4/3 136/4/3 315/4/3 169/4/3

f 34/4/3 319/4/3 320/4/3 177/4/3

f 179/4/3 144/4/3 143/4/3 180/4/3

f 268/4/3 324/4/3 262/4/3 84/4/3

f 183/4/3 62/4/3 61/4/3 25/4/3

f 185/4/3 110/4/3 12/4/3 186/4/3

f 189/4/3 188/4/3 187/4/3 127/4/3

f 131/4/4 304/4/4 150/4/4 286/4/4

f 4/4/4 3/4/4 36/4/4 35/4/4

f 8/2/4 7/2/4 16/2/4 101/2/4

f 16/2/4 15/2/4 196/2/4 195/2/4

f 233/4/4 236/4/4 105/4/4 26/4/4

f 20/4/4 19/4/4 199/4/4 198/4/4

f 337/2/4 338/2/4 339/2/4 340/2/4

f 340/2/4 339/2/4 341/2/4 342/2/4

f 275/2/4 195/2/4 204/2/4 203/2/4

f 121/4/4 214/4/4 49/4/4 40/4/4

f 343/2/4 344/2/4 345/2/4 346/2/4

f 32/2/4 31/2/4 344/2/4 343/2/4

f 347/2/4 348/2/4 338/2/4 337/2/4

f 58/4/4 290/4/4 182/4/4 237/4/4

f 214/4/4 216/4/4 57/4/4 49/4/4

f 187/4/4 233/4/4 26/4/4 25/4/4

f 346/2/4 345/2/4 348/2/4 347/2/4

f 38/4/4 37/4/4 135/4/4 215/4/4

f 42/4/4 41/4/4 218/4/4 217/4/4

f 61/4/4 201/4/4 221/4/4 220/4/4

f 342/2/4 341/2/4 225/2/4 224/2/4

f 19/4/4 38/4/4 215/4/4 199/4/4

f 201/4/4 280/4/4 229/4/4 221/4/4

f 41/4/4 50/4/4 231/4/4 218/4/4

f 52/2/4 8/2/4 101/2/4 100/2/4

f 50/4/4 58/4/4 237/4/4 231/4/4

f 62/4/4 61/4/4 220/4/4 242/4/4

f 37/4/4 173/4/4 136/4/4 135/4/4

f 98/4/4 232/4/4 247/4/4 246/4/4

f 249/4/4 83/4/4 256/4/4 255/4/4

f 77/4/4 70/4/4 54/4/4 53/4/4

f 87/4/4 86/4/4 139/4/4 142/4/4

f 99/4/4 98/4/4 246/4/4 271/4/4

f 103/2/4 102/2/4 274/2/4 273/2/4

f 232/4/4 238/4/4 250/4/4 247/4/4

f 272/2/4 275/2/4 203/2/4 277/2/4

f 102/2/4 104/2/4 278/2/4 274/2/4

f 110/4/4 12/4/4 60/4/4 59/4/4

f 68/4/4 112/4/4 283/4/4 282/4/4

f 114/4/4 95/4/4 186/4/4 185/4/4

f 118/4/4 117/4/4 18/4/4 17/4/4

f 122/4/4 121/4/4 40/4/4 39/4/4

f 126/4/4 125/4/4 127/4/4 189/4/4

f 125/4/4 77/4/4 53/4/4 127/4/4

f 117/4/4 4/4/4 35/4/4 18/4/4

f 134/4/4 66/4/4 33/4/4 2/4/4

f 138/4/4 137/4/4 289/4/4 288/4/4

f 137/4/4 316/4/4 168/4/4 289/4/4

f 81/4/4 141/4/4 292/4/4 261/4/4

f 144/4/4 143/4/4 296/4/4 295/4/4

f 143/4/4 146/4/4 297/4/4 296/4/4

f 286/4/4 150/4/4 85/4/4 84/4/4

f 150/4/4 149/4/4 301/4/4 85/4/4

f 154/4/4 153/4/4 304/4/4 131/4/4

f 153/4/4 156/4/4 305/4/4 304/4/4

f 64/4/4 160/4/4 307/4/4 244/4/4

f 162/4/4 161/4/4 177/4/4 34/4/4

f 161/4/4 164/4/4 309/4/4 177/4/4

f 289/4/4 168/4/4 312/4/4 311/4/4

f 168/4/4 167/4/4 313/4/4 312/4/4

f 172/4/4 171/4/4 317/4/4 316/4/4

f 174/4/4 172/4/4 316/4/4 137/4/4

f 176/4/4 175/4/4 173/4/4 37/4/4

f 175/4/4 178/4/4 169/4/4 173/4/4

f 237/4/4 182/4/4 322/4/4 321/4/4

f 182/4/4 181/4/4 323/4/4 322/4/4

f 184/4/4 28/4/4 97/4/4 96/4/4

f 188/4/4 187/4/4 25/4/4 183/4/4

f 190/4/4 128/4/4 120/4/4 119/4/4

f 349/2/5 350/2/5 351/2/5 352/2/5

f 353/1/5 349/1/5 352/1/5 354/1/5

f 355/4/5 356/4/5 357/4/5 358/4/5

f 359/2/5 355/2/5 358/2/5 360/2/5

f 360/1/5 358/1/5 361/1/5 362/1/5

f 363/1/5 364/1/5 365/1/5 366/1/5

f 364/2/5 353/2/5 354/2/5 365/2/5

f 367/2/5 363/2/5 366/2/5 368/2/5

f 352/1/5 351/1/5 369/1/5 370/1/5

f 362/2/5 361/2/5 371/2/5 372/2/5

f 356/4/5 373/4/5 374/4/5 357/4/5

f 361/1/5 375/1/5 376/1/5 371/1/5

f 357/1/5 374/1/5 377/1/5 375/1/5

f 358/3/5 357/3/5 375/3/5 361/3/5

f 378/1/5 379/1/5 380/1/5 381/1/5

f 370/2/5 369/2/5 379/2/5 378/2/5

f 381/2/5 380/2/5 382/2/5 383/2/5

f 377/1/5 381/1/5 383/1/5 384/1/5

f 375/2/5 377/2/5 384/2/5 376/2/5

f 379/2/5 337/2/5 340/2/5 380/2/5

f 21/2/5 24/2/5 367/2/5 325/2/5

f 327/2/5 362/2/5 372/2/5 328/2/5

f 380/2/5 340/2/5 342/2/5 382/2/5

f 331/2/5 360/2/5 362/2/5 327/2/5

f 376/2/5 384/2/5 207/2/5 206/2/5

f 350/2/5 343/2/5 346/2/5 351/2/5

f 29/2/5 32/2/5 343/2/5 350/2/5

f 333/2/5 359/2/5 360/2/5 331/2/5

f 369/2/5 347/2/5 337/2/5 379/2/5

f 328/2/5 372/2/5 211/2/5 210/2/5

f 351/2/5 346/2/5 347/2/5 369/2/5

f 12/4/5 25/4/5 61/4/5 60/4/5

f 43/2/5 46/2/5 353/2/5 364/2/5

f 95/4/5 127/4/5 187/4/5 186/4/5

f 382/2/5 342/2/5 224/2/5 223/2/5

f 46/2/5 48/2/5 349/2/5 353/2/5

f 384/2/5 383/2/5 227/2/5 207/2/5

f 28/4/5 40/4/5 98/4/5 97/4/5

f 48/2/5 29/2/5 350/2/5 349/2/5

f 128/4/5 18/4/5 121/4/5 120/4/5

f 372/2/5 371/2/5 239/2/5 211/2/5

f 229/4/5 249/4/5 255/4/5 254/4/5

f 366/3/5 365/3/5 356/3/5 355/3/5

f 24/2/5 75/2/5 363/2/5 367/2/5

f 75/2/5 43/2/5 364/2/5 363/2/5

f 383/2/5 382/2/5 223/2/5 227/2/5

f 335/2/5 368/2/5 359/2/5 333/2/5

f 325/2/5 367/2/5 368/2/5 335/2/5

f 354/3/5 352/3/5 370/3/5 373/3/5

f 374/3/5 378/3/5 381/3/5 377/3/5

f 371/2/5 376/2/5 206/2/5 239/2/5

f 368/1/5 366/1/5 355/1/5 359/1/5

f 365/1/5 354/1/5 373/1/5 356/1/5

f 373/4/5 370/4/5 378/4/5 374/4/5

f 107/4/5 67/4/5 90/4/5 89/4/5

f 280/4/5 279/4/5 249/4/5 229/4/5

f 132/4/5 266/4/5 93/4/5 92/4/5

f 129/4/5 132/4/5 92/4/5 285/4/5

f 70/4/5 2/4/5 55/4/5 54/4/5

f 133/4/5 134/4/5 2/4/5 70/4/5

f 216/4/5 135/4/5 58/4/5 57/4/5

f 135/4/5 138/4/5 288/4/5 58/4/5

f 236/4/5 235/4/5 106/4/5 105/4/5

f 142/4/5 80/4/5 257/4/5 294/4/5

f 83/4/5 144/4/5 295/4/5 256/4/5

f 287/4/5 286/4/5 84/4/5 299/4/5

f 151/4/5 154/4/5 131/4/5 130/4/5

f 157/4/5 63/4/5 69/4/5 68/4/5

f 66/4/5 162/4/5 34/4/5 33/4/5

f 290/4/5 289/4/5 311/4/5 182/4/5

f 173/4/5 174/4/5 137/4/5 136/4/5

f 3/4/5 176/4/5 37/4/5 36/4/5

f 238/4/5 237/4/5 321/4/5 250/4/5

f 268/4/5 267/4/5 230/4/5 324/4/5

f 118/2/6 17/2/6 20/2/6 385/2/6

f 303/4/6 147/4/6 150/4/6 304/4/6

f 6/2/6 13/2/6 16/2/6 7/2/6

f 284/2/6 109/2/6 110/2/6 185/2/6

f 126/2/6 189/2/6 190/2/6 115/2/6

f 386/2/6 113/2/6 114/2/6 123/2/6

f 281/2/6 387/2/6 241/2/6 59/2/6

f 282/4/6 78/4/6 79/4/6 51/4/6

f 188/4/6 183/4/6 184/4/6 119/4/6

f 110/3/6 59/3/6 62/3/6 183/3/6

f 14/2/6 197/2/6 196/2/6 15/2/6

f 122/2/6 39/2/6 42/2/6 198/2/6

f 99/2/6 271/2/6 388/2/6 217/2/6

f 62/2/6 242/2/6 270/2/6 96/2/6

f 42/2/6 217/2/6 339/2/6 338/2/6

f 22/2/6 326/2/6 386/2/6 23/2/6

f 330/2/6 329/2/6 387/2/6 281/2/6

f 217/2/6 388/2/6 341/2/6 339/2/6

f 332/2/6 330/2/6 281/2/6 109/2/6

f 194/2/6 205/2/6 204/2/6 195/2/6

f 242/2/6 209/2/6 208/2/6 270/2/6

f 385/2/6 20/2/6 345/2/6 344/2/6

f 30/2/6 385/2/6 344/2/6 31/2/6

f 334/2/6 332/2/6 109/2/6 284/2/6

f 198/2/6 42/2/6 338/2/6 348/2/6

f 273/4/6 179/4/6 182/4/6 290/4/6

f 52/4/6 100/4/6 103/4/6 319/4/6

f 33/4/6 52/4/6 319/4/6 34/4/6

f 329/2/6 213/2/6 212/2/6 387/2/6

f 20/2/6 198/2/6 348/2/6 345/2/6

f 258/4/6 87/4/6 276/4/6 259/4/6

f 44/2/6 126/2/6 115/2/6 45/2/6

f 388/2/6 226/2/6 225/2/6 341/2/6

f 45/2/6 115/2/6 118/2/6 47/2/6

f 270/2/6 208/2/6 228/2/6 271/2/6

f 272/4/6 277/4/6 179/4/6 273/4/6

f 47/2/6 118/2/6 385/2/6 30/2/6

f 387/2/6 212/2/6 240/2/6 241/2/6

f 64/4/6 244/4/6 243/4/6 65/4/6

f 319/4/6 103/4/6 136/4/6 173/4/6

f 68/4/6 282/4/6 51/4/6 69/4/6

f 277/4/6 83/4/6 144/4/6 179/4/6

f 72/2/6 253/2/6 194/2/6 13/2/6

f 114/3/6 185/3/6 188/3/6 189/3/6

f 23/2/6 386/2/6 123/2/6 74/2/6

f 87/4/6 142/4/6 80/4/6 276/4/6

f 74/2/6 123/2/6 126/2/6 44/2/6

f 271/2/6 228/2/6 226/2/6 388/2/6

f 336/2/6 334/2/6 284/2/6 113/2/6

f 326/2/6 336/2/6 113/2/6 386/2/6

f 190/3/6 119/3/6 122/3/6 17/3/6

f 184/3/6 96/3/6 99/3/6 39/3/6

f 241/2/6 240/2/6 209/2/6 242/2/6

f 81/4/6 261/4/6 260/4/6 82/4/6

f 85/4/6 263/4/6 139/4/6 86/4/6

f 154/4/6 131/4/6 78/4/6 282/4/6

f 286/4/6 84/4/6 87/4/6 258/4/6

f 16/2/6 195/2/6 278/2/6 104/2/6

f 111/4/6 153/4/6 283/4/6 112/4/6

f 276/4/6 80/4/6 83/4/6 277/4/6

f 131/4/6 286/4/6 258/4/6 78/4/6

f 69/4/6 51/4/6 52/4/6 33/4/6

f 103/4/6 273/4/6 290/4/6 136/4/6

f 315/4/6 165/4/6 168/4/6 316/4/6

f 140/4/6 293/4/6 292/4/6 141/4/6

f 145/4/6 298/4/6 297/4/6 146/4/6

f 148/4/6 302/4/6 301/4/6 149/4/6

f 155/4/6 306/4/6 305/4/6 156/4/6

f 159/4/6 308/4/6 307/4/6 160/4/6

f 163/4/6 310/4/6 309/4/6 164/4/6

f 166/4/6 314/4/6 313/4/6 167/4/6

f 170/4/6 318/4/6 317/4/6 171/4/6

f 177/4/6 320/4/6 169/4/6 178/4/6

f 180/4/6 143/4/6 323/4/6 181/4/6

# numNormals 6
# numTexCoords 4
# numVerts 388
# numFaces 424
