# MagicaVoxel @ ephtracy

# material
mtllib T1_N_Arrow.mtl

# normals
vn -1 0 0
vn 1 0 0
vn 0 0 1
vn 0 0 -1
vn 0 -1 0
vn 0 1 0

# texcoords
vt 0.970703 0.5
vt 0.982422 0.5

# verts
v -2.5 5 0.5
v -2.5 6 0.5
v -2.5 6 -0.5
v -2.5 5 -0.5
v -2.5 4 0.5
v -2.5 4 -0.5
v -3.5 0 1.5
v -3.5 1 1.5
v -3.5 1 0.5
v -3.5 0 0.5
v -2.5 6 -1.5
v -2.5 5 -1.5
v -2.5 1 1.5
v -2.5 2 1.5
v -2.5 2 0.5
v -2.5 1 0.5
v -3.5 0 3.5
v -3.5 1 3.5
v -3.5 1 2.5
v -3.5 0 2.5
v -3.5 0 -1.5
v -3.5 1 -1.5
v -3.5 1 -2.5
v -3.5 0 -2.5
v -2.5 1 -0.5
v -2.5 2 -0.5
v -2.5 2 -1.5
v -2.5 1 -1.5
v -3.5 0 -0.5
v -3.5 1 -0.5
v -2.5 2 -2.5
v -2.5 1 -2.5
v -2.5 3 1.5
v -2.5 3 0.5
v -2.5 2 2.5
v -2.5 3 2.5
v -2.5 3 -0.5
v -3.5 1 -3.5
v -3.5 0 -3.5
v -2.5 3 -1.5
v -2.5 3 -2.5
v -0.5 1 -2.5
v -0.5 2 -2.5
v -0.5 2 -3.5
v -0.5 1 -3.5
v -0.5 3 2.5
v -0.5 4 2.5
v -0.5 4 1.5
v -0.5 3 1.5
v 1.5 3 2.5
v 1.5 4 2.5
v 1.5 4 1.5
v 1.5 3 1.5
v 0.5 6 -1.5
v 0.5 7 -1.5
v 0.5 7 -2.5
v 0.5 6 -2.5
v 0.5 6 2.5
v 0.5 7 2.5
v 0.5 7 1.5
v 0.5 6 1.5
v -2.5 4 2.5
v -2.5 4 1.5
v -1.5 3 1.5
v -1.5 4 1.5
v -1.5 4 0.5
v -1.5 3 0.5
v -1.5 6 -1.5
v -1.5 7 -1.5
v -1.5 7 -2.5
v -1.5 6 -2.5
v -1.5 6 2.5
v -1.5 7 2.5
v -1.5 7 1.5
v -1.5 6 1.5
v -0.5 1 3.5
v -0.5 2 3.5
v -0.5 2 2.5
v -0.5 1 2.5
v -1.5 3 -0.5
v -1.5 4 -0.5
v -1.5 4 -1.5
v -1.5 3 -1.5
v -0.5 3 -1.5
v -0.5 4 -1.5
v -0.5 4 -2.5
v -0.5 3 -2.5
v 1.5 3 -1.5
v 1.5 4 -1.5
v 1.5 4 -2.5
v 1.5 3 -2.5
v -3.5 2 0.5
v -3.5 2 -0.5
v -2.5 4 -1.5
v -2.5 4 -2.5
v 1.5 7 2.5
v 1.5 8 2.5
v 1.5 8 1.5
v 1.5 7 1.5
v -2.5 7 2.5
v -2.5 8 2.5
v -2.5 8 1.5
v -2.5 7 1.5
v -1.5 5 -0.5
v -1.5 5 -1.5
v -0.5 5 -1.5
v -0.5 5 -2.5
v 1.5 5 -1.5
v 1.5 5 -2.5
v -2.5 7 -0.5
v -2.5 7 -1.5
v -2.5 6 1.5
v -2.5 7 0.5
v 1.5 7 -1.5
v 1.5 8 -1.5
v 1.5 8 -2.5
v 1.5 7 -2.5
v -1.5 5 -2.5
v -2.5 5 -2.5
v -1.5 5 1.5
v -1.5 5 0.5
v -0.5 5 2.5
v -0.5 5 1.5
v 1.5 5 2.5
v 1.5 5 1.5
v -2.5 8 -1.5
v -2.5 8 -2.5
v -2.5 7 -2.5
v 1.5 6 -0.5
v 1.5 7 -0.5
v 1.5 6 -1.5
v -2.5 5 2.5
v -2.5 5 1.5
v -1.5 5 2.5
v -2.5 1 2.5
v 1.5 6 1.5
v 1.5 7 0.5
v 1.5 6 0.5
v 2.5 1 1.5
v 2.5 1 0.5
v 2.5 2 0.5
v 2.5 2 1.5
v 2.5 1 2.5
v 2.5 2 2.5
v 2.5 1 -0.5
v 2.5 1 -1.5
v 2.5 2 -1.5
v 2.5 2 -0.5
v 2.5 3 0.5
v 2.5 3 1.5
v 2.5 1 -2.5
v 2.5 2 -2.5
v 2.5 3 -1.5
v 2.5 3 -0.5
v 0.5 1 -2.5
v 0.5 1 -3.5
v 0.5 2 -3.5
v 0.5 2 -2.5
v 0.5 3 2.5
v 0.5 3 1.5
v 0.5 4 1.5
v 0.5 4 2.5
v 2.5 3 2.5
v 2.5 4 1.5
v 2.5 4 2.5
v 1.5 3 0.5
v 1.5 4 0.5
v 1.5 6 -2.5
v 1.5 6 2.5
v -1.5 3 2.5
v -1.5 4 2.5
v 2.5 4 -0.5
v 2.5 4 0.5
v 1.5 3 -0.5
v 1.5 4 -0.5
v -0.5 6 -1.5
v -0.5 6 -2.5
v -0.5 7 -2.5
v -0.5 7 -1.5
v -0.5 6 2.5
v -0.5 6 1.5
v -0.5 7 1.5
v -0.5 7 2.5
v 0.5 1 3.5
v 0.5 1 2.5
v 0.5 2 2.5
v 0.5 2 3.5
v 0.5 3 -1.5
v 0.5 3 -2.5
v 0.5 4 -2.5
v 0.5 4 -1.5
v 2.5 3 -2.5
v 2.5 4 -2.5
v 2.5 4 -1.5
v -1.5 3 -2.5
v -1.5 4 -2.5
v 1.5 5 -0.5
v 2.5 7 2.5
v 2.5 7 1.5
v 2.5 8 1.5
v 2.5 8 2.5
v -1.5 8 1.5
v -1.5 8 2.5
v 0.5 5 -2.5
v 0.5 5 -1.5
v 2.5 5 -0.5
v 2.5 5 0.5
v 2.5 5 -2.5
v 2.5 5 -1.5
v 1.5 5 0.5
v -1.5 6 -0.5
v -1.5 7 -0.5
v 3.5 0 -1.5
v 3.5 0 -2.5
v 3.5 1 -2.5
v 3.5 1 -1.5
v -1.5 6 0.5
v -1.5 7 0.5
v 2.5 7 -1.5
v 2.5 7 -2.5
v 2.5 8 -2.5
v 2.5 8 -1.5
v 0.5 5 1.5
v 0.5 5 2.5
v 2.5 5 1.5
v 2.5 5 2.5
v -1.5 8 -2.5
v -1.5 8 -1.5
v 2.5 6 -0.5
v 2.5 6 -1.5
v 2.5 7 -0.5
v 2.5 6 0.5
v 2.5 6 1.5
v 2.5 7 0.5
v 3.5 0 3.5
v 3.5 0 2.5
v 3.5 1 2.5
v 3.5 1 3.5
v 3.5 0 1.5
v 3.5 1 1.5
v 3.5 0 0.5
v 3.5 1 0.5
v 3.5 0 -0.5
v 3.5 1 -0.5
v 3.5 2 -0.5
v 3.5 2 0.5
v 3.5 0 -3.5
v 3.5 1 -3.5
v 1.5 1 2.5
v 1.5 2 2.5
v -1.5 1 2.5
v -1.5 2 2.5
v -2.5 0 3.5
v -2.5 1 3.5
v -1.5 0 3.5
v -1.5 1 3.5
v -0.5 0 3.5
v 0.5 0 3.5
v 1.5 0 3.5
v 1.5 1 3.5
v 2.5 0 3.5
v 2.5 1 3.5
v 1.5 2 -2.5
v 1.5 1 -2.5
v -1.5 1 -2.5
v -1.5 2 -2.5
v -2.5 1 -3.5
v -2.5 0 -3.5
v 1.5 0 -3.5
v 1.5 1 -3.5
v 2.5 1 -3.5
v 2.5 0 -3.5
v 0.5 0 -3.5
v -0.5 0 -3.5
v -1.5 0 -3.5
v -1.5 1 -3.5
v -2.5 0 -1.5
v -2.5 0 -2.5
v -1.5 0 -2.5
v -1.5 0 -1.5
v -2.5 0 -0.5
v -1.5 0 -0.5
v -0.5 0 1.5
v -0.5 0 0.5
v 0.5 0 0.5
v 0.5 0 1.5
v -0.5 0 2.5
v 0.5 0 2.5
v 1.5 0 1.5
v 1.5 0 2.5
v -2.5 0 1.5
v -2.5 0 0.5
v -1.5 0 0.5
v -1.5 0 1.5
v -2.5 0 2.5
v -1.5 0 2.5
v -0.5 0 -2.5
v -0.5 0 -1.5
v 2.5 0 1.5
v 2.5 0 2.5
v -0.5 0 -0.5
v 0.5 0 -0.5
v 1.5 0 0.5
v 2.5 0 0.5
v 1.5 0 -0.5
v 0.5 0 -1.5
v 0.5 0 -2.5
v 1.5 0 -2.5
v 1.5 0 -1.5
v 2.5 0 -2.5
v 2.5 0 -1.5
v 2.5 0 -0.5
v -0.5 6 -0.5
v 0.5 6 0.5
v -0.5 6 0.5
v 0.5 6 -0.5

# faces

usemtl palette

f 1/2/1 2/2/1 3/2/1 4/2/1

f 5/2/1 1/2/1 4/2/1 6/2/1

f 7/1/1 8/1/1 9/1/1 10/1/1

f 4/2/1 3/2/1 11/2/1 12/2/1

f 13/2/1 14/2/1 15/2/1 16/2/1

f 17/1/1 18/1/1 19/1/1 20/1/1

f 21/1/1 22/1/1 23/1/1 24/1/1

f 25/2/1 26/2/1 27/2/1 28/2/1

f 29/1/1 30/1/1 22/1/1 21/1/1

f 28/2/1 27/2/1 31/2/1 32/2/1

f 14/2/1 33/2/1 34/2/1 15/2/1

f 35/2/1 36/2/1 33/2/1 14/2/1

f 15/2/1 34/2/1 37/2/1 26/2/1

f 24/1/1 23/1/1 38/1/1 39/1/1

f 26/2/1 37/2/1 40/2/1 27/2/1

f 27/2/1 40/2/1 41/2/1 31/2/1

f 42/2/1 43/2/1 44/2/1 45/2/1

f 46/2/1 47/2/1 48/2/1 49/2/1

f 50/2/1 51/2/1 52/2/1 53/2/1

f 54/2/1 55/2/1 56/2/1 57/2/1

f 58/2/1 59/2/1 60/2/1 61/2/1

f 36/2/1 62/2/1 63/2/1 33/2/1

f 64/2/1 65/2/1 66/2/1 67/2/1

f 68/2/1 69/2/1 70/2/1 71/2/1

f 72/2/1 73/2/1 74/2/1 75/2/1

f 76/2/1 77/2/1 78/2/1 79/2/1

f 34/2/1 5/2/1 6/2/1 37/2/1

f 80/2/1 81/2/1 82/2/1 83/2/1

f 84/2/1 85/2/1 86/2/1 87/2/1

f 88/2/1 89/2/1 90/2/1 91/2/1

f 9/2/1 92/2/1 93/2/1 30/2/1

f 10/1/1 9/1/1 30/1/1 29/1/1

f 40/2/1 94/2/1 95/2/1 41/2/1

f 96/2/1 97/2/1 98/2/1 99/2/1

f 100/2/1 101/2/1 102/2/1 103/2/1

f 81/2/1 104/2/1 105/2/1 82/2/1

f 85/2/1 106/2/1 107/2/1 86/2/1

f 89/2/1 108/2/1 109/2/1 90/2/1

f 3/2/1 110/2/1 111/2/1 11/2/1

f 112/2/1 103/2/1 113/2/1 2/2/1

f 114/2/1 115/2/1 116/2/1 117/2/1

f 105/2/1 68/2/1 71/2/1 118/2/1

f 94/2/1 12/2/1 119/2/1 95/2/1

f 65/2/1 120/2/1 121/2/1 66/2/1

f 47/2/1 122/2/1 123/2/1 48/2/1

f 51/2/1 124/2/1 125/2/1 52/2/1

f 111/2/1 126/2/1 127/2/1 128/2/1

f 129/2/1 130/2/1 114/2/1 131/2/1

f 62/2/1 132/2/1 133/2/1 63/2/1

f 20/1/1 19/1/1 8/1/1 7/1/1

f 133/2/1 112/2/1 2/2/1 1/2/1

f 134/2/1 72/2/1 75/2/1 120/2/1

f 135/2/1 35/2/1 14/2/1 13/2/1

f 136/2/1 99/2/1 137/2/1 138/2/1

f 139/2/2 140/2/2 141/2/2 142/2/2

f 143/2/2 139/2/2 142/2/2 144/2/2

f 145/2/2 146/2/2 147/2/2 148/2/2

f 142/2/2 141/2/2 149/2/2 150/2/2

f 146/2/2 151/2/2 152/2/2 147/2/2

f 148/2/2 147/2/2 153/2/2 154/2/2

f 155/2/2 156/2/2 157/2/2 158/2/2

f 159/2/2 160/2/2 161/2/2 162/2/2

f 163/2/2 150/2/2 164/2/2 165/2/2

f 53/2/2 166/2/2 167/2/2 52/2/2

f 131/2/2 168/2/2 117/2/2 114/2/2

f 169/2/2 136/2/2 99/2/2 96/2/2

f 170/2/2 64/2/2 65/2/2 171/2/2

f 149/2/2 154/2/2 172/2/2 173/2/2

f 174/2/2 88/2/2 89/2/2 175/2/2

f 176/2/2 177/2/2 178/2/2 179/2/2

f 180/2/2 181/2/2 182/2/2 183/2/2

f 184/2/2 185/2/2 186/2/2 187/2/2

f 188/2/2 189/2/2 190/2/2 191/2/2

f 153/2/2 192/2/2 193/2/2 194/2/2

f 83/2/2 195/2/2 196/2/2 82/2/2

f 175/2/2 89/2/2 108/2/2 197/2/2

f 198/2/2 199/2/2 200/2/2 201/2/2

f 73/2/2 74/2/2 202/2/2 203/2/2

f 191/2/2 190/2/2 204/2/2 205/2/2

f 173/2/2 172/2/2 206/2/2 207/2/2

f 194/2/2 193/2/2 208/2/2 209/2/2

f 52/2/2 167/2/2 210/2/2 125/2/2

f 211/2/2 68/2/2 69/2/2 212/2/2

f 213/1/2 214/1/2 215/1/2 216/1/2

f 75/2/2 217/2/2 218/2/2 74/2/2

f 219/2/2 220/2/2 221/2/2 222/2/2

f 82/2/2 196/2/2 118/2/2 105/2/2

f 162/2/2 161/2/2 223/2/2 224/2/2

f 165/2/2 164/2/2 225/2/2 226/2/2

f 69/2/2 70/2/2 227/2/2 228/2/2

f 229/2/2 230/2/2 219/2/2 231/2/2

f 171/2/2 65/2/2 120/2/2 134/2/2

f 225/2/2 207/2/2 232/2/2 233/2/2

f 124/2/2 125/2/2 136/2/2 169/2/2

f 207/2/2 206/2/2 229/2/2 232/2/2

f 206/2/2 209/2/2 230/2/2 229/2/2

f 108/2/2 109/2/2 168/2/2 131/2/2

f 233/2/2 232/2/2 234/2/2 199/2/2

f 235/1/2 236/1/2 237/1/2 238/1/2

f 236/1/2 239/1/2 240/1/2 237/1/2

f 239/1/2 241/1/2 242/1/2 240/1/2

f 241/1/2 243/1/2 244/1/2 242/1/2

f 243/1/2 213/1/2 216/1/2 244/1/2

f 242/2/2 244/2/2 245/2/2 246/2/2

f 214/1/2 247/1/2 248/1/2 215/1/2

f 147/2/2 152/2/2 192/2/2 153/2/2

f 141/2/2 148/2/2 154/2/2 149/2/2

f 144/2/2 142/2/2 150/2/2 163/2/2

f 5/2/3 66/2/3 121/2/3 1/2/3

f 185/2/3 249/2/3 250/2/3 186/2/3

f 249/2/3 143/2/3 144/2/3 250/2/3

f 251/2/3 79/2/3 78/2/3 252/2/3

f 17/1/3 253/1/3 254/1/3 18/1/3

f 186/2/3 250/2/3 50/2/3 159/2/3

f 78/2/3 186/2/3 159/2/3 46/2/3

f 252/2/3 78/2/3 46/2/3 170/2/3

f 35/2/3 252/2/3 170/2/3 36/2/3

f 46/2/3 159/2/3 162/2/3 47/2/3

f 50/2/3 163/2/3 165/2/3 51/2/3

f 160/2/3 53/2/3 52/2/3 161/2/3

f 54/2/3 131/2/3 114/2/3 55/2/3

f 58/2/3 169/2/3 96/2/3 59/2/3

f 36/2/3 170/2/3 171/2/3 62/2/3

f 64/2/3 49/2/3 48/2/3 65/2/3

f 166/2/3 149/2/3 173/2/3 167/2/3

f 68/2/3 176/2/3 179/2/3 69/2/3

f 72/2/3 180/2/3 183/2/3 73/2/3

f 76/2/3 184/2/3 187/2/3 77/2/3

f 34/2/3 67/2/3 66/2/3 5/2/3

f 88/2/3 153/2/3 194/2/3 89/2/3

f 9/2/3 16/2/3 15/2/3 92/2/3

f 40/2/3 83/2/3 82/2/3 94/2/3

f 96/2/3 198/2/3 201/2/3 97/2/3

f 100/2/3 73/2/3 203/2/3 101/2/3

f 167/2/3 173/2/3 207/2/3 210/2/3

f 89/2/3 194/2/3 209/2/3 108/2/3

f 161/2/3 52/2/3 125/2/3 223/2/3

f 3/2/3 211/2/3 212/2/3 110/2/3

f 112/2/3 75/2/3 74/2/3 103/2/3

f 114/2/3 219/2/3 222/2/3 115/2/3

f 94/2/3 82/2/3 105/2/3 12/2/3

f 65/2/3 48/2/3 123/2/3 120/2/3

f 47/2/3 162/2/3 224/2/3 122/2/3

f 51/2/3 165/2/3 226/2/3 124/2/3

f 111/2/3 69/2/3 228/2/3 126/2/3

f 129/2/3 229/2/3 231/2/3 130/2/3

f 62/2/3 171/2/3 134/2/3 132/2/3

f 125/2/3 225/2/3 233/2/3 136/2/3

f 224/2/3 124/2/3 169/2/3 58/2/3

f 122/2/3 224/2/3 58/2/3 180/2/3

f 133/2/3 120/2/3 75/2/3 112/2/3

f 134/2/3 122/2/3 180/2/3 72/2/3

f 135/2/3 251/2/3 252/2/3 35/2/3

f 136/2/3 233/2/3 199/2/3 99/2/3

f 253/1/3 255/1/3 256/1/3 254/1/3

f 255/1/3 257/1/3 76/1/3 256/1/3

f 257/1/3 258/1/3 184/1/3 76/1/3

f 258/1/3 259/1/3 260/1/3 184/1/3

f 259/1/3 261/1/3 262/1/3 260/1/3

f 261/1/3 235/1/3 238/1/3 262/1/3

f 140/2/3 242/2/3 246/2/3 141/2/3

f 250/2/3 144/2/3 163/2/3 50/2/3

f 107/2/4 177/2/4 57/2/4 204/2/4

f 6/2/4 4/2/4 104/2/4 81/2/4

f 12/2/4 11/2/4 68/2/4 105/2/4

f 155/2/4 158/2/4 263/2/4 264/2/4

f 265/2/4 266/2/4 43/2/4 42/2/4

f 264/2/4 263/2/4 152/2/4 151/2/4

f 32/2/4 31/2/4 266/2/4 265/2/4

f 158/2/4 189/2/4 91/2/4 263/2/4

f 43/2/4 87/2/4 189/2/4 158/2/4

f 39/1/4 38/1/4 267/1/4 268/1/4

f 266/2/4 195/2/4 87/2/4 43/2/4

f 31/2/4 41/2/4 195/2/4 266/2/4

f 45/2/4 44/2/4 157/2/4 156/2/4

f 53/2/4 52/2/4 164/2/4 150/2/4

f 57/2/4 56/2/4 117/2/4 168/2/4

f 61/2/4 60/2/4 99/2/4 136/2/4

f 33/2/4 63/2/4 65/2/4 64/2/4

f 174/2/4 175/2/4 172/2/4 154/2/4

f 188/2/4 191/2/4 89/2/4 88/2/4

f 71/2/4 70/2/4 178/2/4 177/2/4

f 75/2/4 74/2/4 182/2/4 181/2/4

f 37/2/4 6/2/4 81/2/4 80/2/4

f 83/2/4 82/2/4 85/2/4 84/2/4

f 87/2/4 86/2/4 190/2/4 189/2/4

f 91/2/4 90/2/4 193/2/4 192/2/4

f 30/2/4 93/2/4 26/2/4 25/2/4

f 41/2/4 95/2/4 196/2/4 195/2/4

f 191/2/4 205/2/4 108/2/4 89/2/4

f 99/2/4 98/2/4 200/2/4 199/2/4

f 103/2/4 102/2/4 202/2/4 74/2/4

f 82/2/4 105/2/4 106/2/4 85/2/4

f 86/2/4 107/2/4 204/2/4 190/2/4

f 175/2/4 197/2/4 206/2/4 172/2/4

f 90/2/4 109/2/4 208/2/4 193/2/4

f 11/2/4 111/2/4 69/2/4 68/2/4

f 2/2/4 113/2/4 218/2/4 217/2/4

f 117/2/4 116/2/4 221/2/4 220/2/4

f 118/2/4 71/2/4 177/2/4 107/2/4

f 95/2/4 119/2/4 118/2/4 196/2/4

f 52/2/4 125/2/4 225/2/4 164/2/4

f 128/2/4 127/2/4 227/2/4 70/2/4

f 131/2/4 114/2/4 219/2/4 230/2/4

f 63/2/4 133/2/4 120/2/4 65/2/4

f 108/2/4 131/2/4 230/2/4 209/2/4

f 204/2/4 57/2/4 168/2/4 109/2/4

f 138/2/4 137/2/4 234/2/4 232/2/4

f 145/2/4 148/2/4 245/2/4 244/2/4

f 269/1/4 270/1/4 271/1/4 272/1/4

f 273/1/4 156/1/4 270/1/4 269/1/4

f 274/1/4 45/1/4 156/1/4 273/1/4

f 275/1/4 276/1/4 45/1/4 274/1/4

f 272/1/4 271/1/4 248/1/4 247/1/4

f 268/1/4 267/1/4 276/1/4 275/1/4

f 263/2/4 91/2/4 192/2/4 152/2/4

f 277/1/5 278/1/5 279/1/5 280/1/5

f 281/1/5 277/1/5 280/1/5 282/1/5

f 283/1/5 284/1/5 285/1/5 286/1/5

f 287/1/5 283/1/5 286/1/5 288/1/5

f 288/1/5 286/1/5 289/1/5 290/1/5

f 291/1/5 292/1/5 293/1/5 294/1/5

f 292/1/5 281/1/5 282/1/5 293/1/5

f 295/1/5 291/1/5 294/1/5 296/1/5

f 280/1/5 279/1/5 297/1/5 298/1/5

f 290/1/5 289/1/5 299/1/5 300/1/5

f 7/1/5 10/1/5 292/1/5 291/1/5

f 284/1/5 301/1/5 302/1/5 285/1/5

f 289/1/5 303/1/5 304/1/5 299/1/5

f 285/1/5 302/1/5 305/1/5 303/1/5

f 286/1/5 285/1/5 303/1/5 289/1/5

f 4/2/5 12/2/5 105/2/5 104/2/5

f 306/1/5 307/1/5 308/1/5 309/1/5

f 298/1/5 297/1/5 307/1/5 306/1/5

f 309/1/5 308/1/5 310/1/5 311/1/5

f 305/1/5 309/1/5 311/1/5 312/1/5

f 303/1/5 305/1/5 312/1/5 304/1/5

f 17/1/5 20/1/5 295/1/5 253/1/5

f 21/1/5 24/1/5 278/1/5 277/1/5

f 29/1/5 21/1/5 277/1/5 281/1/5

f 24/1/5 39/1/5 268/1/5 278/1/5

f 10/1/5 29/1/5 281/1/5 292/1/5

f 96/2/5 99/2/5 199/2/5 198/2/5

f 100/2/5 103/2/5 74/2/5 73/2/5

f 311/1/5 310/1/5 214/1/5 213/1/5

f 114/2/5 117/2/5 220/2/5 219/2/5

f 105/2/5 118/2/5 107/2/5 106/2/5

f 111/2/5 128/2/5 70/2/5 69/2/5

f 125/2/5 210/2/5 207/2/5 225/2/5

f 224/2/5 223/2/5 125/2/5 124/2/5

f 20/1/5 7/1/5 291/1/5 295/1/5

f 133/2/5 1/2/5 121/2/5 120/2/5

f 134/2/5 120/2/5 123/2/5 122/2/5

f 197/2/5 108/2/5 209/2/5 206/2/5

f 205/2/5 204/2/5 109/2/5 108/2/5

f 302/1/5 306/1/5 309/1/5 305/1/5

f 301/1/5 298/1/5 306/1/5 302/1/5

f 282/1/5 280/1/5 298/1/5 301/1/5

f 293/1/5 282/1/5 301/1/5 284/1/5

f 294/1/5 293/1/5 284/1/5 283/1/5

f 296/1/5 294/1/5 283/1/5 287/1/5

f 253/1/5 295/1/5 296/1/5 255/1/5

f 255/1/5 296/1/5 287/1/5 257/1/5

f 257/1/5 287/1/5 288/1/5 258/1/5

f 258/1/5 288/1/5 290/1/5 259/1/5

f 259/1/5 290/1/5 300/1/5 261/1/5

f 261/1/5 300/1/5 236/1/5 235/1/5

f 300/1/5 299/1/5 239/1/5 236/1/5

f 299/1/5 304/1/5 241/1/5 239/1/5

f 304/1/5 312/1/5 243/1/5 241/1/5

f 312/1/5 311/1/5 213/1/5 243/1/5

f 308/1/5 269/1/5 272/1/5 310/1/5

f 307/1/5 273/1/5 269/1/5 308/1/5

f 297/1/5 274/1/5 273/1/5 307/1/5

f 279/1/5 275/1/5 274/1/5 297/1/5

f 310/1/5 272/1/5 247/1/5 214/1/5

f 278/1/5 268/1/5 275/1/5 279/1/5

f 176/2/6 54/2/6 57/2/6 177/2/6

f 211/2/6 313/2/6 176/2/6 68/2/6

f 2/2/6 217/2/6 211/2/6 3/2/6

f 8/1/6 13/1/6 16/1/6 9/1/6

f 18/1/6 254/1/6 135/1/6 19/1/6

f 22/1/6 28/1/6 32/1/6 23/1/6

f 30/1/6 25/1/6 28/1/6 22/1/6

f 53/2/6 150/2/6 149/2/6 166/2/6

f 159/2/6 50/2/6 53/2/6 160/2/6

f 33/2/6 64/2/6 67/2/6 34/2/6

f 170/2/6 46/2/6 49/2/6 64/2/6

f 174/2/6 154/2/6 153/2/6 88/2/6

f 188/2/6 88/2/6 91/2/6 189/2/6

f 23/1/6 32/1/6 267/1/6 38/1/6

f 37/2/6 80/2/6 83/2/6 40/2/6

f 83/2/6 84/2/6 87/2/6 195/2/6

f 43/2/6 158/2/6 157/2/6 44/2/6

f 55/2/6 114/2/6 117/2/6 56/2/6

f 59/2/6 96/2/6 99/2/6 60/2/6

f 69/2/6 179/2/6 178/2/6 70/2/6

f 73/2/6 183/2/6 182/2/6 74/2/6

f 77/2/6 187/2/6 186/2/6 78/2/6

f 92/2/6 15/2/6 26/2/6 93/2/6

f 97/2/6 201/2/6 200/2/6 98/2/6

f 101/2/6 203/2/6 202/2/6 102/2/6

f 108/2/6 209/2/6 208/2/6 109/2/6

f 110/2/6 212/2/6 69/2/6 111/2/6

f 146/1/6 216/1/6 215/1/6 151/1/6

f 103/2/6 74/2/6 218/2/6 113/2/6

f 115/2/6 222/2/6 221/2/6 116/2/6

f 12/2/6 105/2/6 118/2/6 119/2/6

f 124/2/6 226/2/6 225/2/6 125/2/6

f 126/2/6 228/2/6 227/2/6 127/2/6

f 130/2/6 231/2/6 219/2/6 114/2/6

f 132/2/6 134/2/6 120/2/6 133/2/6

f 61/2/6 136/2/6 138/2/6 314/2/6

f 181/2/6 61/2/6 314/2/6 315/2/6

f 314/2/6 138/2/6 129/2/6 316/2/6

f 75/2/6 181/2/6 315/2/6 217/2/6

f 180/2/6 58/2/6 61/2/6 181/2/6

f 315/2/6 314/2/6 316/2/6 313/2/6

f 19/1/6 135/1/6 13/1/6 8/1/6

f 138/2/6 232/2/6 229/2/6 129/2/6

f 316/2/6 129/2/6 131/2/6 54/2/6

f 217/2/6 315/2/6 313/2/6 211/2/6

f 313/2/6 316/2/6 54/2/6 176/2/6

f 99/2/6 199/2/6 234/2/6 137/2/6

f 254/1/6 256/1/6 251/1/6 135/1/6

f 256/1/6 76/1/6 79/1/6 251/1/6

f 184/1/6 260/1/6 249/1/6 185/1/6

f 260/1/6 262/1/6 143/1/6 249/1/6

f 262/1/6 238/1/6 237/1/6 143/1/6

f 143/1/6 237/1/6 240/1/6 139/1/6

f 139/1/6 240/1/6 242/1/6 140/1/6

f 145/1/6 244/1/6 216/1/6 146/1/6

f 141/2/6 246/2/6 245/2/6 148/2/6

f 264/1/6 151/1/6 271/1/6 270/1/6

f 155/1/6 264/1/6 270/1/6 156/1/6

f 265/1/6 42/1/6 45/1/6 276/1/6

f 151/1/6 215/1/6 248/1/6 271/1/6

f 32/1/6 265/1/6 276/1/6 267/1/6

# numNormals 6
# numTexCoords 2
# numVerts 316
# numFaces 338
