# MagicaVoxel @ ephtracy

# material
mtllib T1_T_Pebble.mtl

# normals
vn -1 0 0
vn 1 0 0
vn 0 0 1
vn 0 0 -1
vn 0 -1 0
vn 0 1 0

# texcoords
vt 0.537109 0.5
vt 0.970703 0.5
vt 0.982422 0.5

# verts
v 0.5 3 0.5
v 0.5 4 0.5
v 0.5 4 -0.5
v 0.5 3 -0.5
v -1.5 3 0.5
v -1.5 4 0.5
v -1.5 4 -0.5
v -1.5 3 -0.5
v -3.5 0 1.5
v -3.5 1 1.5
v -3.5 1 0.5
v -3.5 0 0.5
v -2.5 1 -0.5
v -2.5 2 -0.5
v -2.5 2 -1.5
v -2.5 1 -1.5
v -2.5 1 1.5
v -2.5 2 1.5
v -2.5 2 0.5
v -2.5 1 0.5
v -1.5 1 2.5
v -1.5 2 2.5
v -1.5 2 1.5
v -1.5 1 1.5
v -3.5 0 3.5
v -3.5 1 3.5
v -3.5 1 2.5
v -3.5 0 2.5
v -3.5 0 -1.5
v -3.5 1 -1.5
v -3.5 1 -2.5
v -3.5 0 -2.5
v -1.5 1 -1.5
v -1.5 2 -1.5
v -1.5 2 -2.5
v -1.5 1 -2.5
v -3.5 0 -0.5
v -3.5 1 -0.5
v -1.5 3 1.5
v -1.5 2 0.5
v -0.5 2 2.5
v -0.5 3 2.5
v -0.5 3 1.5
v -0.5 2 1.5
v -1.5 5 0.5
v -1.5 5 -0.5
v -0.5 4 1.5
v -0.5 5 1.5
v -0.5 5 0.5
v -0.5 4 0.5
v -2.5 3 0.5
v -2.5 3 -0.5
v -1.5 2 -0.5
v -1.5 3 -1.5
v 0.5 5 0.5
v 0.5 5 -0.5
v -3.5 1 -3.5
v -3.5 0 -3.5
v -0.5 2 -1.5
v -0.5 3 -1.5
v -0.5 3 -2.5
v -0.5 2 -2.5
v -1.5 4 -1.5
v -0.5 4 -0.5
v -0.5 5 -0.5
v -0.5 5 -1.5
v -0.5 4 -1.5
v -1.5 4 1.5
v -0.5 6 -0.5
v -0.5 6 -1.5
v -1.5 6 0.5
v -1.5 6 -0.5
v 0.5 6 0.5
v 0.5 6 -0.5
v -0.5 6 1.5
v -0.5 6 0.5
v 0.5 7 0.5
v 0.5 7 -0.5
v -1.5 7 0.5
v -1.5 7 -0.5
v -0.5 7 -0.5
v -0.5 7 -1.5
v -0.5 7 1.5
v -0.5 7 0.5
v -1.5 8 0.5
v -1.5 8 -0.5
v -0.5 8 -0.5
v -0.5 8 -1.5
v 0.5 8 0.5
v 0.5 8 -0.5
v -0.5 8 1.5
v -0.5 8 0.5
v 1.5 3 0.5
v 1.5 3 -0.5
v 1.5 4 -0.5
v 1.5 4 0.5
v -0.5 3 0.5
v -0.5 3 -0.5
v 2.5 1 1.5
v 2.5 1 0.5
v 2.5 2 0.5
v 2.5 2 1.5
v 1.5 1 2.5
v 1.5 1 1.5
v 1.5 2 1.5
v 1.5 2 2.5
v 2.5 1 -0.5
v 2.5 2 -0.5
v 2.5 1 -1.5
v 2.5 2 -1.5
v 1.5 1 -1.5
v 1.5 1 -2.5
v 1.5 2 -2.5
v 1.5 2 -1.5
v 3.5 0 -1.5
v 3.5 0 -2.5
v 3.5 1 -2.5
v 3.5 1 -1.5
v 1.5 2 0.5
v 1.5 3 1.5
v 3.5 0 3.5
v 3.5 0 2.5
v 3.5 1 2.5
v 3.5 1 3.5
v 0.5 2 2.5
v 0.5 2 1.5
v 0.5 3 1.5
v 0.5 3 2.5
v 3.5 0 1.5
v 3.5 0 0.5
v 3.5 1 0.5
v 3.5 1 1.5
v 1.5 2 -0.5
v 1.5 3 -1.5
v 0.5 4 1.5
v 0.5 5 1.5
v 1.5 5 -0.5
v 1.5 5 0.5
v 0.5 2 -1.5
v 0.5 2 -2.5
v 0.5 3 -2.5
v 0.5 3 -1.5
v 3.5 0 -0.5
v 3.5 1 -0.5
v 1.5 4 1.5
v 3.5 0 -3.5
v 3.5 1 -3.5
v 1.5 4 -1.5
v 2.5 3 -0.5
v 2.5 3 0.5
v 0.5 4 -1.5
v 0.5 5 -1.5
v 0.5 6 -1.5
v 1.5 6 -0.5
v 1.5 6 0.5
v 0.5 6 1.5
v 1.5 7 -0.5
v 1.5 7 0.5
v 0.5 7 -1.5
v 0.5 7 1.5
v 0.5 8 -1.5
v 1.5 8 -0.5
v 1.5 8 0.5
v 0.5 8 1.5
v 1.5 0 3.5
v 2.5 0 3.5
v 2.5 1 3.5
v 1.5 1 3.5
v -0.5 0 3.5
v 0.5 0 3.5
v 0.5 1 3.5
v -0.5 1 3.5
v 0.5 1 2.5
v -0.5 1 2.5
v -2.5 0 3.5
v -2.5 1 3.5
v -1.5 0 3.5
v -1.5 1 3.5
v -1.5 0 -3.5
v -1.5 1 -3.5
v -0.5 1 -3.5
v -0.5 0 -3.5
v 0.5 1 -2.5
v -0.5 1 -2.5
v -2.5 1 -3.5
v -2.5 0 -3.5
v 2.5 0 -3.5
v 2.5 1 -3.5
v 0.5 0 -3.5
v 0.5 1 -3.5
v 1.5 1 -3.5
v 1.5 0 -3.5
v -2.5 0 -1.5
v -2.5 0 -2.5
v -1.5 0 -2.5
v -1.5 0 -1.5
v -2.5 0 -0.5
v -1.5 0 -0.5
v 1.5 0 2.5
v 2.5 0 2.5
v -0.5 0 1.5
v -0.5 0 0.5
v 0.5 0 0.5
v 0.5 0 1.5
v -0.5 0 2.5
v 0.5 0 2.5
v 1.5 0 1.5
v -0.5 0 -2.5
v -2.5 0 1.5
v -2.5 0 0.5
v -1.5 0 0.5
v -1.5 0 1.5
v -2.5 0 2.5
v -1.5 0 2.5
v -0.5 0 -1.5
v 2.5 0 1.5
v -0.5 0 -0.5
v 0.5 0 -0.5
v 1.5 0 0.5
v 2.5 0 0.5
v 1.5 0 -0.5
v 0.5 0 -1.5
v 0.5 0 -2.5
v 1.5 0 -2.5
v 1.5 0 -1.5
v 2.5 0 -2.5
v 2.5 0 -1.5
v 2.5 0 -0.5
v -2.5 1 -2.5
v 2.5 1 2.5
v -2.5 1 2.5
v 2.5 1 -2.5

# faces

usemtl palette

f 1/3/1 2/3/1 3/3/1 4/3/1

f 5/3/1 6/3/1 7/3/1 8/3/1

f 9/1/1 10/1/1 11/1/1 12/1/1

f 13/3/1 14/3/1 15/3/1 16/3/1

f 17/3/1 18/3/1 19/3/1 20/3/1

f 21/3/1 22/3/1 23/3/1 24/3/1

f 25/1/1 26/1/1 27/1/1 28/1/1

f 20/3/1 19/3/1 14/3/1 13/3/1

f 29/1/1 30/1/1 31/1/1 32/1/1

f 33/3/1 34/3/1 35/3/1 36/3/1

f 37/1/1 38/1/1 30/1/1 29/1/1

f 28/1/1 27/1/1 10/1/1 9/1/1

f 23/3/1 39/3/1 5/3/1 40/3/1

f 41/3/1 42/3/1 43/3/1 44/3/1

f 12/1/1 11/1/1 38/1/1 37/1/1

f 6/3/1 45/3/1 46/3/1 7/3/1

f 47/3/1 48/3/1 49/3/1 50/3/1

f 19/3/1 51/3/1 52/3/1 14/3/1

f 53/3/1 8/3/1 54/3/1 34/3/1

f 2/3/1 55/3/1 56/3/1 3/3/1

f 32/1/1 31/1/1 57/1/1 58/1/1

f 59/3/1 60/3/1 61/3/1 62/3/1

f 8/3/1 7/3/1 63/3/1 54/3/1

f 64/3/1 65/3/1 66/3/1 67/3/1

f 39/3/1 68/3/1 6/3/1 5/3/1

f 65/3/1 69/3/1 70/3/1 66/3/1

f 45/3/1 71/3/1 72/3/1 46/3/1

f 55/3/1 73/3/1 74/3/1 56/3/1

f 48/3/1 75/3/1 76/3/1 49/3/1

f 73/3/1 77/3/1 78/3/1 74/3/1

f 71/3/1 79/3/1 80/3/1 72/3/1

f 69/3/1 81/3/1 82/3/1 70/3/1

f 75/3/1 83/3/1 84/3/1 76/3/1

f 79/3/1 85/3/1 86/3/1 80/3/1

f 81/3/1 87/3/1 88/3/1 82/3/1

f 77/3/1 89/3/1 90/3/1 78/3/1

f 83/3/1 91/3/1 92/3/1 84/3/1

f 93/3/2 94/3/2 95/3/2 96/3/2

f 97/3/2 98/3/2 64/3/2 50/3/2

f 99/3/2 100/3/2 101/3/2 102/3/2

f 103/3/2 104/3/2 105/3/2 106/3/2

f 100/3/2 107/3/2 108/3/2 101/3/2

f 107/3/2 109/3/2 110/3/2 108/3/2

f 111/3/2 112/3/2 113/3/2 114/3/2

f 115/1/2 116/1/2 117/1/2 118/1/2

f 105/3/2 119/3/2 93/3/2 120/3/2

f 121/1/2 122/1/2 123/1/2 124/1/2

f 125/3/2 126/3/2 127/3/2 128/3/2

f 129/1/2 130/1/2 131/1/2 132/1/2

f 133/3/2 114/3/2 134/3/2 94/3/2

f 50/3/2 64/3/2 65/3/2 49/3/2

f 135/3/2 2/3/2 55/3/2 136/3/2

f 96/3/2 95/3/2 137/3/2 138/3/2

f 139/3/2 140/3/2 141/3/2 142/3/2

f 130/1/2 143/1/2 144/1/2 131/1/2

f 120/3/2 93/3/2 96/3/2 145/3/2

f 116/1/2 146/1/2 147/1/2 117/1/2

f 94/3/2 134/3/2 148/3/2 95/3/2

f 101/3/2 108/3/2 149/3/2 150/3/2

f 143/1/2 115/1/2 118/1/2 144/1/2

f 3/3/2 151/3/2 152/3/2 56/3/2

f 122/1/2 129/1/2 132/1/2 123/1/2

f 56/3/2 152/3/2 153/3/2 74/3/2

f 49/3/2 65/3/2 69/3/2 76/3/2

f 138/3/2 137/3/2 154/3/2 155/3/2

f 136/3/2 55/3/2 73/3/2 156/3/2

f 155/3/2 154/3/2 157/3/2 158/3/2

f 76/3/2 69/3/2 81/3/2 84/3/2

f 74/3/2 153/3/2 159/3/2 78/3/2

f 156/3/2 73/3/2 77/3/2 160/3/2

f 84/3/2 81/3/2 87/3/2 92/3/2

f 78/3/2 159/3/2 161/3/2 90/3/2

f 158/3/2 157/3/2 162/3/2 163/3/2

f 160/3/2 77/3/2 89/3/2 164/3/2

f 165/1/3 166/1/3 167/1/3 168/1/3

f 169/1/3 170/1/3 171/1/3 172/1/3

f 104/3/3 99/3/3 102/3/3 105/3/3

f 173/3/3 103/3/3 106/3/3 125/3/3

f 174/3/3 173/3/3 125/3/3 41/3/3

f 17/3/3 24/3/3 23/3/3 18/3/3

f 21/3/3 174/3/3 41/3/3 22/3/3

f 25/1/3 175/1/3 176/1/3 26/1/3

f 126/3/3 105/3/3 120/3/3 127/3/3

f 166/1/3 121/1/3 124/1/3 167/1/3

f 23/3/3 44/3/3 43/3/3 39/3/3

f 41/3/3 125/3/3 128/3/3 42/3/3

f 175/1/3 177/1/3 178/1/3 176/1/3

f 170/1/3 165/1/3 168/1/3 171/1/3

f 6/3/3 50/3/3 49/3/3 45/3/3

f 47/3/3 135/3/3 136/3/3 48/3/3

f 98/3/3 4/3/3 3/3/3 64/3/3

f 19/3/3 40/3/3 5/3/3 51/3/3

f 2/3/3 96/3/3 138/3/3 55/3/3

f 127/3/3 120/3/3 145/3/3 135/3/3

f 177/1/3 169/1/3 172/1/3 178/1/3

f 119/3/3 101/3/3 150/3/3 93/3/3

f 43/3/3 127/3/3 135/3/3 47/3/3

f 64/3/3 3/3/3 56/3/3 65/3/3

f 39/3/3 43/3/3 47/3/3 68/3/3

f 65/3/3 56/3/3 74/3/3 69/3/3

f 45/3/3 49/3/3 76/3/3 71/3/3

f 55/3/3 138/3/3 155/3/3 73/3/3

f 48/3/3 136/3/3 156/3/3 75/3/3

f 73/3/3 155/3/3 158/3/3 77/3/3

f 71/3/3 76/3/3 84/3/3 79/3/3

f 69/3/3 74/3/3 78/3/3 81/3/3

f 75/3/3 156/3/3 160/3/3 83/3/3

f 79/3/3 84/3/3 92/3/3 85/3/3

f 81/3/3 78/3/3 90/3/3 87/3/3

f 77/3/3 158/3/3 163/3/3 89/3/3

f 83/3/3 160/3/3 164/3/3 91/3/3

f 179/1/4 180/1/4 181/1/4 182/1/4

f 16/3/4 15/3/4 34/3/4 33/3/4

f 111/3/4 114/3/4 110/3/4 109/3/4

f 183/3/4 140/3/4 113/3/4 112/3/4

f 184/3/4 62/3/4 140/3/4 183/3/4

f 36/3/4 35/3/4 62/3/4 184/3/4

f 139/3/4 142/3/4 134/3/4 114/3/4

f 7/3/4 46/3/4 65/3/4 64/3/4

f 50/3/4 49/3/4 55/3/4 2/3/4

f 60/3/4 67/3/4 151/3/4 142/3/4

f 14/3/4 52/3/4 8/3/4 53/3/4

f 34/3/4 54/3/4 60/3/4 59/3/4

f 3/3/4 56/3/4 137/3/4 95/3/4

f 58/1/4 57/1/4 185/1/4 186/1/4

f 62/3/4 61/3/4 141/3/4 140/3/4

f 187/1/4 188/1/4 147/1/4 146/1/4

f 189/1/4 190/1/4 191/1/4 192/1/4

f 54/3/4 63/3/4 67/3/4 60/3/4

f 186/1/4 185/1/4 180/1/4 179/1/4

f 192/1/4 191/1/4 188/1/4 187/1/4

f 142/3/4 151/3/4 148/3/4 134/3/4

f 182/1/4 181/1/4 190/1/4 189/1/4

f 133/3/4 94/3/4 149/3/4 108/3/4

f 97/3/4 50/3/4 2/3/4 1/3/4

f 67/3/4 66/3/4 152/3/4 151/3/4

f 66/3/4 70/3/4 153/3/4 152/3/4

f 46/3/4 72/3/4 69/3/4 65/3/4

f 56/3/4 74/3/4 154/3/4 137/3/4

f 49/3/4 76/3/4 73/3/4 55/3/4

f 74/3/4 78/3/4 157/3/4 154/3/4

f 72/3/4 80/3/4 81/3/4 69/3/4

f 70/3/4 82/3/4 159/3/4 153/3/4

f 76/3/4 84/3/4 77/3/4 73/3/4

f 80/3/4 86/3/4 87/3/4 81/3/4

f 82/3/4 88/3/4 161/3/4 159/3/4

f 78/3/4 90/3/4 162/3/4 157/3/4

f 84/3/4 92/3/4 89/3/4 77/3/4

f 193/1/5 194/1/5 195/1/5 196/1/5

f 197/2/5 193/2/5 196/2/5 198/2/5

f 165/1/5 199/1/5 200/1/5 166/1/5

f 201/2/5 202/2/5 203/2/5 204/2/5

f 205/2/5 201/2/5 204/2/5 206/2/5

f 206/2/5 204/2/5 207/2/5 199/2/5

f 195/1/5 179/1/5 182/1/5 208/1/5

f 209/2/5 210/2/5 211/2/5 212/2/5

f 210/2/5 197/2/5 198/2/5 211/2/5

f 213/1/5 209/1/5 212/1/5 214/1/5

f 196/2/5 195/2/5 208/2/5 215/2/5

f 199/1/5 207/1/5 216/1/5 200/1/5

f 9/1/5 12/1/5 210/1/5 209/1/5

f 202/2/5 217/2/5 218/2/5 203/2/5

f 207/2/5 219/2/5 220/2/5 216/2/5

f 203/2/5 218/2/5 221/2/5 219/2/5

f 204/2/5 203/2/5 219/2/5 207/2/5

f 169/1/5 205/1/5 206/1/5 170/1/5

f 222/2/5 223/2/5 224/2/5 225/2/5

f 215/2/5 208/2/5 223/2/5 222/2/5

f 225/1/5 224/1/5 226/1/5 227/1/5

f 221/2/5 225/2/5 227/2/5 228/2/5

f 219/2/5 221/2/5 228/2/5 220/2/5

f 25/1/5 28/1/5 213/1/5 175/1/5

f 29/1/5 32/1/5 194/1/5 193/1/5

f 227/1/5 226/1/5 116/1/5 115/1/5

f 37/1/5 29/1/5 193/1/5 197/1/5

f 166/1/5 200/1/5 122/1/5 121/1/5

f 28/1/5 9/1/5 209/1/5 213/1/5

f 216/1/5 220/1/5 130/1/5 129/1/5

f 175/1/5 213/1/5 214/1/5 177/1/5

f 12/1/5 37/1/5 197/1/5 210/1/5

f 170/1/5 206/1/5 199/1/5 165/1/5

f 32/1/5 58/1/5 186/1/5 194/1/5

f 220/1/5 228/1/5 143/1/5 130/1/5

f 226/1/5 187/1/5 146/1/5 116/1/5

f 223/1/5 189/1/5 192/1/5 224/1/5

f 211/2/5 198/2/5 217/2/5 202/2/5

f 194/1/5 186/1/5 179/1/5 195/1/5

f 198/2/5 196/2/5 215/2/5 217/2/5

f 224/1/5 192/1/5 187/1/5 226/1/5

f 212/2/5 211/2/5 202/2/5 201/2/5

f 177/1/5 214/1/5 205/1/5 169/1/5

f 217/2/5 215/2/5 222/2/5 218/2/5

f 208/1/5 182/1/5 189/1/5 223/1/5

f 214/2/5 212/2/5 201/2/5 205/2/5

f 218/2/5 222/2/5 225/2/5 221/2/5

f 228/1/5 227/1/5 115/1/5 143/1/5

f 200/1/5 216/1/5 129/1/5 122/1/5

f 16/1/6 33/1/6 36/1/6 229/1/6

f 168/1/6 167/1/6 230/1/6 103/1/6

f 36/1/6 184/1/6 181/1/6 180/1/6

f 231/1/6 21/1/6 24/1/6 17/1/6

f 103/1/6 230/1/6 99/1/6 104/1/6

f 10/1/6 17/1/6 20/1/6 11/1/6

f 172/1/6 171/1/6 173/1/6 174/1/6

f 111/1/6 109/1/6 232/1/6 112/1/6

f 105/3/6 102/3/6 101/3/6 119/3/6

f 125/3/6 106/3/6 105/3/6 126/3/6

f 14/3/6 53/3/6 34/3/6 15/3/6

f 18/3/6 23/3/6 40/3/6 19/3/6

f 22/3/6 41/3/6 44/3/6 23/3/6

f 133/3/6 108/3/6 110/3/6 114/3/6

f 139/3/6 114/3/6 113/3/6 140/3/6

f 26/1/6 176/1/6 231/1/6 27/1/6

f 30/1/6 16/1/6 229/1/6 31/1/6

f 109/1/6 118/1/6 117/1/6 232/1/6

f 34/3/6 59/3/6 62/3/6 35/3/6

f 38/1/6 13/1/6 16/1/6 30/1/6

f 167/1/6 124/1/6 123/1/6 230/1/6

f 27/1/6 231/1/6 17/1/6 10/1/6

f 42/3/6 128/3/6 127/3/6 43/3/6

f 97/3/6 1/3/6 4/3/6 98/3/6

f 99/1/6 132/1/6 131/1/6 100/1/6

f 176/1/6 178/1/6 21/1/6 231/1/6

f 11/1/6 20/1/6 13/1/6 38/1/6

f 171/1/6 168/1/6 103/1/6 173/1/6

f 51/3/6 5/3/6 8/3/6 52/3/6

f 31/1/6 229/1/6 185/1/6 57/1/6

f 60/3/6 142/3/6 141/3/6 61/3/6

f 100/1/6 131/1/6 144/1/6 107/1/6

f 135/3/6 145/3/6 96/3/6 2/3/6

f 232/1/6 117/1/6 147/1/6 188/1/6

f 183/1/6 112/1/6 191/1/6 190/1/6

f 7/3/6 64/3/6 67/3/6 63/3/6

f 229/1/6 36/1/6 180/1/6 185/1/6

f 112/1/6 232/1/6 188/1/6 191/1/6

f 178/1/6 172/1/6 174/1/6 21/1/6

f 3/3/6 95/3/6 148/3/6 151/3/6

f 184/1/6 183/1/6 190/1/6 181/1/6

f 93/3/6 150/3/6 149/3/6 94/3/6

f 107/1/6 144/1/6 118/1/6 109/1/6

f 230/1/6 123/1/6 132/1/6 99/1/6

f 68/3/6 47/3/6 50/3/6 6/3/6

f 85/3/6 92/3/6 87/3/6 86/3/6

f 87/3/6 90/3/6 161/3/6 88/3/6

f 89/3/6 163/3/6 162/3/6 90/3/6

f 91/3/6 164/3/6 89/3/6 92/3/6

# numNormals 6
# numTexCoords 3
# numVerts 232
# numFaces 246
